<svg xmlns="http://www.w3.org/2000/svg" width="820" height="560" viewBox="0 0 820 560" font-family="'JetBrains Mono','Spline Sans Mono',ui-monospace,monospace"><rect x="8" y="8" width="804" height="544" fill="none" stroke="#86855F" stroke-opacity="0.35" stroke-width="1"/><line x1="40" y1="8" x2="40" y2="16" stroke="#86855F" stroke-opacity="0.3"/><line x1="40" y1="544" x2="40" y2="552" stroke="#86855F" stroke-opacity="0.3"/><line x1="80" y1="8" x2="80" y2="16" stroke="#86855F" stroke-opacity="0.3"/><line x1="80" y1="544" x2="80" y2="552" stroke="#86855F" stroke-opacity="0.3"/><line x1="120" y1="8" x2="120" y2="16" stroke="#86855F" stroke-opacity="0.3"/><line x1="120" y1="544" x2="120" y2="552" stroke="#86855F" stroke-opacity="0.3"/><line x1="160" y1="8" x2="160" y2="16" stroke="#86855F" stroke-opacity="0.3"/><line x1="160" y1="544" x2="160" y2="552" stroke="#86855F" stroke-opacity="0.3"/><line x1="200" y1="8" x2="200" y2="16" stroke="#86855F" stroke-opacity="0.3"/><line x1="200" y1="544" x2="200" y2="552" stroke="#86855F" stroke-opacity="0.3"/><line x1="240" y1="8" x2="240" y2="16" stroke="#86855F" stroke-opacity="0.3"/><line x1="240" y1="544" x2="240" y2="552" stroke="#86855F" stroke-opacity="0.3"/><line x1="280" y1="8" x2="280" y2="16" stroke="#86855F" stroke-opacity="0.3"/><line x1="280" y1="544" x2="280" y2="552" stroke="#86855F" stroke-opacity="0.3"/><line x1="320" y1="8" x2="320" y2="16" stroke="#86855F" stroke-opacity="0.3"/><line x1="320" y1="544" x2="320" y2="552" stroke="#86855F" stroke-opacity="0.3"/><line x1="360" y1="8" x2="360" y2="16" stroke="#86855F" stroke-opacity="0.3"/><line x1="360" y1="544" x2="360" y2="552" stroke="#86855F" stroke-opacity="0.3"/><line x1="400" y1="8" x2="400" y2="16" stroke="#86855F" stroke-opacity="0.3"/><line x1="400" y1="544" x2="400" y2="552" stroke="#86855F" stroke-opacity="0.3"/><line x1="440" y1="8" x2="440" y2="16" stroke="#86855F" stroke-opacity="0.3"/><line x1="440" y1="544" x2="440" y2="552" stroke="#86855F" stroke-opacity="0.3"/><line x1="480" y1="8" x2="480" y2="16" stroke="#86855F" stroke-opacity="0.3"/><line x1="480" y1="544" x2="480" y2="552" stroke="#86855F" stroke-opacity="0.3"/><line x1="520" y1="8" x2="520" y2="16" stroke="#86855F" stroke-opacity="0.3"/><line x1="520" y1="544" x2="520" y2="552" stroke="#86855F" stroke-opacity="0.3"/><line x1="560" y1="8" x2="560" y2="16" stroke="#86855F" stroke-opacity="0.3"/><line x1="560" y1="544" x2="560" y2="552" stroke="#86855F" stroke-opacity="0.3"/><line x1="600" y1="8" x2="600" y2="16" stroke="#86855F" stroke-opacity="0.3"/><line x1="600" y1="544" x2="600" y2="552" stroke="#86855F" stroke-opacity="0.3"/><line x1="640" y1="8" x2="640" y2="16" stroke="#86855F" stroke-opacity="0.3"/><line x1="640" y1="544" x2="640" y2="552" stroke="#86855F" stroke-opacity="0.3"/><line x1="680" y1="8" x2="680" y2="16" stroke="#86855F" stroke-opacity="0.3"/><line x1="680" y1="544" x2="680" y2="552" stroke="#86855F" stroke-opacity="0.3"/><line x1="720" y1="8" x2="720" y2="16" stroke="#86855F" stroke-opacity="0.3"/><line x1="720" y1="544" x2="720" y2="552" stroke="#86855F" stroke-opacity="0.3"/><line x1="760" y1="8" x2="760" y2="16" stroke="#86855F" stroke-opacity="0.3"/><line x1="760" y1="544" x2="760" y2="552" stroke="#86855F" stroke-opacity="0.3"/><line x1="800" y1="8" x2="800" y2="16" stroke="#86855F" stroke-opacity="0.3"/><line x1="800" y1="544" x2="800" y2="552" stroke="#86855F" stroke-opacity="0.3"/><path d="M190 275 h440 M410 75 v400" stroke="#86855F" stroke-opacity="0.18" stroke-dasharray="2 6"/><line x1="410" y1="275" x2="551.4" y2="385.3" stroke="#B6B58A" stroke-opacity="0.55" stroke-width="3"/><circle cx="551.4" cy="385.3" r="62" fill="none" stroke="#86855F" stroke-opacity="0.5" stroke-dasharray="3 5"/><circle cx="551.4" cy="385.3" r="44" fill="none" stroke="#B6B58A" stroke-opacity="0.6"/><circle cx="551.4" cy="385.3" r="6" fill="#B6B58A" fill-opacity="0.7"/><rect x="542.4" y="376.3" width="18" height="18" fill="none" stroke="#86855F" stroke-opacity="0.6"/><line x1="410" y1="275" x2="268.6" y2="385.3" stroke="#B6B58A" stroke-opacity="0.55" stroke-width="3"/><circle cx="268.6" cy="385.3" r="62" fill="none" stroke="#86855F" stroke-opacity="0.5" stroke-dasharray="3 5"/><circle cx="268.6" cy="385.3" r="44" fill="none" stroke="#B6B58A" stroke-opacity="0.6"/><circle cx="268.6" cy="385.3" r="6" fill="#B6B58A" fill-opacity="0.7"/><rect x="259.6" y="376.3" width="18" height="18" fill="none" stroke="#86855F" stroke-opacity="0.6"/><line x1="410" y1="275" x2="268.6" y2="164.7" stroke="#B6B58A" stroke-opacity="0.55" stroke-width="3"/><circle cx="268.6" cy="164.7" r="62" fill="none" stroke="#86855F" stroke-opacity="0.5" stroke-dasharray="3 5"/><circle cx="268.6" cy="164.7" r="44" fill="none" stroke="#B6B58A" stroke-opacity="0.6"/><circle cx="268.6" cy="164.7" r="6" fill="#B6B58A" fill-opacity="0.7"/><rect x="259.6" y="155.7" width="18" height="18" fill="none" stroke="#86855F" stroke-opacity="0.6"/><line x1="410" y1="275" x2="551.4" y2="164.7" stroke="#B6B58A" stroke-opacity="0.55" stroke-width="3"/><circle cx="551.4" cy="164.7" r="62" fill="none" stroke="#86855F" stroke-opacity="0.5" stroke-dasharray="3 5"/><circle cx="551.4" cy="164.7" r="44" fill="none" stroke="#B6B58A" stroke-opacity="0.6"/><circle cx="551.4" cy="164.7" r="6" fill="#B6B58A" fill-opacity="0.7"/><rect x="542.4" y="155.7" width="18" height="18" fill="none" stroke="#86855F" stroke-opacity="0.6"/><rect x="352" y="229" width="116" height="92" rx="6" fill="#15160F" stroke="#B6B58A" stroke-opacity="0.7" stroke-width="1.5"/><rect x="370" y="247" width="80" height="56" fill="none" stroke="#86855F" stroke-opacity="0.5" stroke-dasharray="2 4"/><circle cx="410" cy="329" r="15" fill="#15160F" stroke="#D58A43" stroke-opacity="0.8"/><circle cx="410" cy="329" r="6" fill="#D58A43" fill-opacity="0.5"/><rect x="400" y="183" width="20" height="46" rx="3" fill="#15160F" stroke="#E7E7DD" stroke-opacity="0.7"/><path d="M403 183 l7 -14 l7 14" fill="none" stroke="#E7E7DD" stroke-opacity="0.6"/><line x1="410" y1="189" x2="260" y2="125" stroke="#E7E7DD" stroke-opacity="0.55"/><circle cx="410" cy="189" r="2.5" fill="#E7E7DD"/><text x="260" y="119" fill="#E7E7DD" fill-opacity="0.92" font-size="13" letter-spacing="1" text-anchor="start">NET LAUNCHER</text><text x="260" y="136" fill="#E7E7DD" fill-opacity="0.8" font-size="10.5" letter-spacing="1.5" text-anchor="start">PAN/TILT · SOFT-AIM</text><line x1="454" y1="319" x2="560" y2="425" stroke="#B6B58A" stroke-opacity="0.55"/><circle cx="454" cy="319" r="2.5" fill="#B6B58A"/><text x="560" y="419" fill="#E7E7DD" fill-opacity="0.92" font-size="13" letter-spacing="1" text-anchor="start">COAXIAL X8</text><text x="560" y="436" fill="#B6B58A" fill-opacity="0.8" font-size="10.5" letter-spacing="1.5" text-anchor="start">8× BRUSHLESS · 18" PROP</text><line x1="410" y1="329" x2="260" y2="425" stroke="#D58A43" stroke-opacity="0.55"/><circle cx="410" cy="329" r="2.5" fill="#D58A43"/><text x="260" y="419" fill="#E7E7DD" fill-opacity="0.92" font-size="13" letter-spacing="1" text-anchor="end">EO / IR TURRET</text><text x="260" y="436" fill="#D58A43" fill-opacity="0.8" font-size="10.5" letter-spacing="1.5" text-anchor="end">FUSED TRACK</text><line x1="460" y1="245" x2="560" y2="125" stroke="#86855F" stroke-opacity="0.55"/><circle cx="460" cy="245" r="2.5" fill="#86855F"/><text x="560" y="119" fill="#E7E7DD" fill-opacity="0.92" font-size="13" letter-spacing="1" text-anchor="start">MISSION COMPUTER</text><text x="560" y="136" fill="#86855F" fill-opacity="0.8" font-size="10.5" letter-spacing="1.5" text-anchor="start">SIGNED MAVLINK 2</text><line x1="210" y1="485" x2="610" y2="485" stroke="#86855F" stroke-opacity="0.5"/><path d="M210 480 v10 M610 480 v10" stroke="#86855F" stroke-opacity="0.5"/><text x="410" y="477" fill="#E7E7DD" fill-opacity="0.8" font-size="12" letter-spacing="2" text-anchor="middle">1150 mm WHEELBASE</text><text x="22" y="538" fill="#86855F" fill-opacity="0.7" font-size="11" letter-spacing="2">FIG.02 — "GEULMAE" INTERCEPTOR · TOP VIEW</text><text x="798" y="538" fill="#86855F" fill-opacity="0.7" font-size="11" letter-spacing="2" text-anchor="end">REV. 3 · SCALE 1:12</text></svg>