<svg xmlns="http://www.w3.org/2000/svg" width="240" height="240" viewBox="0 0 240 240"><line x1="0" y1="0" x2="0" y2="240" stroke="#86855F" stroke-width="1" stroke-opacity="0.1"/><line x1="0" y1="0" x2="240" y2="0" stroke="#86855F" stroke-width="1" stroke-opacity="0.1"/><line x1="24" y1="0" x2="24" y2="240" stroke="#86855F" stroke-width="1" stroke-opacity="0.045"/><line x1="0" y1="24" x2="240" y2="24" stroke="#86855F" stroke-width="1" stroke-opacity="0.045"/><line x1="48" y1="0" x2="48" y2="240" stroke="#86855F" stroke-width="1" stroke-opacity="0.045"/><line x1="0" y1="48" x2="240" y2="48" stroke="#86855F" stroke-width="1" stroke-opacity="0.045"/><line x1="72" y1="0" x2="72" y2="240" stroke="#86855F" stroke-width="1" stroke-opacity="0.045"/><line x1="0" y1="72" x2="240" y2="72" stroke="#86855F" stroke-width="1" stroke-opacity="0.045"/><line x1="96" y1="0" x2="96" y2="240" stroke="#86855F" stroke-width="1" stroke-opacity="0.045"/><line x1="0" y1="96" x2="240" y2="96" stroke="#86855F" stroke-width="1" stroke-opacity="0.045"/><line x1="120" y1="0" x2="120" y2="240" stroke="#86855F" stroke-width="1" stroke-opacity="0.1"/><line x1="0" y1="120" x2="240" y2="120" stroke="#86855F" stroke-width="1" stroke-opacity="0.1"/><line x1="144" y1="0" x2="144" y2="240" stroke="#86855F" stroke-width="1" stroke-opacity="0.045"/><line x1="0" y1="144" x2="240" y2="144" stroke="#86855F" stroke-width="1" stroke-opacity="0.045"/><line x1="168" y1="0" x2="168" y2="240" stroke="#86855F" stroke-width="1" stroke-opacity="0.045"/><line x1="0" y1="168" x2="240" y2="168" stroke="#86855F" stroke-width="1" stroke-opacity="0.045"/><line x1="192" y1="0" x2="192" y2="240" stroke="#86855F" stroke-width="1" stroke-opacity="0.045"/><line x1="0" y1="192" x2="240" y2="192" stroke="#86855F" stroke-width="1" stroke-opacity="0.045"/><line x1="216" y1="0" x2="216" y2="240" stroke="#86855F" stroke-width="1" stroke-opacity="0.045"/><line x1="0" y1="216" x2="240" y2="216" stroke="#86855F" stroke-width="1" stroke-opacity="0.045"/><line x1="240" y1="0" x2="240" y2="240" stroke="#86855F" stroke-width="1" stroke-opacity="0.1"/><line x1="0" y1="240" x2="240" y2="240" stroke="#86855F" stroke-width="1" stroke-opacity="0.1"/><path d="M-5 0 h10 M0 -5 v10" stroke="#86855F" stroke-width="1" stroke-opacity="0.28"/><path d="M-5 120 h10 M0 115 v10" stroke="#86855F" stroke-width="1" stroke-opacity="0.28"/><path d="M-5 240 h10 M0 235 v10" stroke="#86855F" stroke-width="1" stroke-opacity="0.28"/><path d="M115 0 h10 M120 -5 v10" stroke="#86855F" stroke-width="1" stroke-opacity="0.28"/><path d="M115 120 h10 M120 115 v10" stroke="#86855F" stroke-width="1" stroke-opacity="0.28"/><path d="M115 240 h10 M120 235 v10" stroke="#86855F" stroke-width="1" stroke-opacity="0.28"/><path d="M235 0 h10 M240 -5 v10" stroke="#86855F" stroke-width="1" stroke-opacity="0.28"/><path d="M235 120 h10 M240 115 v10" stroke="#86855F" stroke-width="1" stroke-opacity="0.28"/><path d="M235 240 h10 M240 235 v10" stroke="#86855F" stroke-width="1" stroke-opacity="0.28"/></svg>