<svg xmlns="http://www.w3.org/2000/svg" width="160" height="160" viewBox="0 0 160 160"><line x1="-160" y1="0" x2="0" y2="160" stroke="#B6B58A" stroke-width="1" stroke-opacity="0.16"/><line x1="-160" y1="160" x2="0" y2="0" stroke="#B6B58A" stroke-width="1" stroke-opacity="0.16"/><line x1="-140" y1="0" x2="20" y2="160" stroke="#B6B58A" stroke-width="1" stroke-opacity="0.16"/><line x1="-140" y1="160" x2="20" y2="0" stroke="#B6B58A" stroke-width="1" stroke-opacity="0.16"/><line x1="-120" y1="0" x2="40" y2="160" stroke="#B6B58A" stroke-width="1" stroke-opacity="0.16"/><line x1="-120" y1="160" x2="40" y2="0" stroke="#B6B58A" stroke-width="1" stroke-opacity="0.16"/><line x1="-100" y1="0" x2="60" y2="160" stroke="#B6B58A" stroke-width="1" stroke-opacity="0.16"/><line x1="-100" y1="160" x2="60" y2="0" stroke="#B6B58A" stroke-width="1" stroke-opacity="0.16"/><line x1="-80" y1="0" x2="80" y2="160" stroke="#B6B58A" stroke-width="1" stroke-opacity="0.16"/><line x1="-80" y1="160" x2="80" y2="0" stroke="#B6B58A" stroke-width="1" stroke-opacity="0.16"/><line x1="-60" y1="0" x2="100" y2="160" stroke="#B6B58A" stroke-width="1" stroke-opacity="0.16"/><line x1="-60" y1="160" x2="100" y2="0" stroke="#B6B58A" stroke-width="1" stroke-opacity="0.16"/><line x1="-40" y1="0" x2="120" y2="160" stroke="#B6B58A" stroke-width="1" stroke-opacity="0.16"/><line x1="-40" y1="160" x2="120" y2="0" stroke="#B6B58A" stroke-width="1" stroke-opacity="0.16"/><line x1="-20" y1="0" x2="140" y2="160" stroke="#B6B58A" stroke-width="1" stroke-opacity="0.16"/><line x1="-20" y1="160" x2="140" y2="0" stroke="#B6B58A" stroke-width="1" stroke-opacity="0.16"/><line x1="0" y1="0" x2="160" y2="160" stroke="#B6B58A" stroke-width="1" stroke-opacity="0.16"/><line x1="0" y1="160" x2="160" y2="0" stroke="#B6B58A" stroke-width="1" stroke-opacity="0.16"/><line x1="20" y1="0" x2="180" y2="160" stroke="#B6B58A" stroke-width="1" stroke-opacity="0.16"/><line x1="20" y1="160" x2="180" y2="0" stroke="#B6B58A" stroke-width="1" stroke-opacity="0.16"/><line x1="40" y1="0" x2="200" y2="160" stroke="#B6B58A" stroke-width="1" stroke-opacity="0.16"/><line x1="40" y1="160" x2="200" y2="0" stroke="#B6B58A" stroke-width="1" stroke-opacity="0.16"/><line x1="60" y1="0" x2="220" y2="160" stroke="#B6B58A" stroke-width="1" stroke-opacity="0.16"/><line x1="60" y1="160" x2="220" y2="0" stroke="#B6B58A" stroke-width="1" stroke-opacity="0.16"/><line x1="80" y1="0" x2="240" y2="160" stroke="#B6B58A" stroke-width="1" stroke-opacity="0.16"/><line x1="80" y1="160" x2="240" y2="0" stroke="#B6B58A" stroke-width="1" stroke-opacity="0.16"/><line x1="100" y1="0" x2="260" y2="160" stroke="#B6B58A" stroke-width="1" stroke-opacity="0.16"/><line x1="100" y1="160" x2="260" y2="0" stroke="#B6B58A" stroke-width="1" stroke-opacity="0.16"/><line x1="120" y1="0" x2="280" y2="160" stroke="#B6B58A" stroke-width="1" stroke-opacity="0.16"/><line x1="120" y1="160" x2="280" y2="0" stroke="#B6B58A" stroke-width="1" stroke-opacity="0.16"/><line x1="140" y1="0" x2="300" y2="160" stroke="#B6B58A" stroke-width="1" stroke-opacity="0.16"/><line x1="140" y1="160" x2="300" y2="0" stroke="#B6B58A" stroke-width="1" stroke-opacity="0.16"/><line x1="160" y1="0" x2="320" y2="160" stroke="#B6B58A" stroke-width="1" stroke-opacity="0.16"/><line x1="160" y1="160" x2="320" y2="0" stroke="#B6B58A" stroke-width="1" stroke-opacity="0.16"/><circle cx="0" cy="0" r="1.3" fill="#B6B58A" fill-opacity="0.22"/><circle cx="0" cy="20" r="1.3" fill="#B6B58A" fill-opacity="0.22"/><circle cx="0" cy="40" r="1.3" fill="#B6B58A" fill-opacity="0.22"/><circle cx="0" cy="60" r="1.3" fill="#B6B58A" fill-opacity="0.22"/><circle cx="0" cy="80" r="1.3" fill="#B6B58A" fill-opacity="0.22"/><circle cx="0" cy="100" r="1.3" fill="#B6B58A" fill-opacity="0.22"/><circle cx="0" cy="120" r="1.3" fill="#B6B58A" fill-opacity="0.22"/><circle cx="0" cy="140" r="1.3" fill="#B6B58A" fill-opacity="0.22"/><circle cx="0" cy="160" r="1.3" fill="#B6B58A" fill-opacity="0.22"/><circle cx="20" cy="0" r="1.3" fill="#B6B58A" fill-opacity="0.22"/><circle cx="20" cy="20" r="1.3" fill="#B6B58A" fill-opacity="0.22"/><circle cx="20" cy="40" r="1.3" fill="#B6B58A" fill-opacity="0.22"/><circle cx="20" cy="60" r="1.3" fill="#B6B58A" fill-opacity="0.22"/><circle cx="20" cy="80" r="1.3" fill="#B6B58A" fill-opacity="0.22"/><circle cx="20" cy="100" r="1.3" fill="#B6B58A" fill-opacity="0.22"/><circle cx="20" cy="120" r="1.3" fill="#B6B58A" fill-opacity="0.22"/><circle cx="20" cy="140" r="1.3" fill="#B6B58A" fill-opacity="0.22"/><circle cx="20" cy="160" r="1.3" fill="#B6B58A" fill-opacity="0.22"/><circle cx="40" cy="0" r="1.3" fill="#B6B58A" fill-opacity="0.22"/><circle cx="40" cy="20" r="1.3" fill="#B6B58A" fill-opacity="0.22"/><circle cx="40" cy="40" r="1.3" fill="#B6B58A" fill-opacity="0.22"/><circle cx="40" cy="60" r="1.3" fill="#B6B58A" fill-opacity="0.22"/><circle cx="40" cy="80" r="1.3" fill="#B6B58A" fill-opacity="0.22"/><circle cx="40" cy="100" r="1.3" fill="#B6B58A" fill-opacity="0.22"/><circle cx="40" cy="120" r="1.3" fill="#B6B58A" fill-opacity="0.22"/><circle cx="40" cy="140" r="1.3" fill="#B6B58A" fill-opacity="0.22"/><circle cx="40" cy="160" r="1.3" fill="#B6B58A" fill-opacity="0.22"/><circle cx="60" cy="0" r="1.3" fill="#B6B58A" fill-opacity="0.22"/><circle cx="60" cy="20" r="1.3" fill="#B6B58A" fill-opacity="0.22"/><circle cx="60" cy="40" r="1.3" fill="#B6B58A" fill-opacity="0.22"/><circle cx="60" cy="60" r="1.3" fill="#B6B58A" fill-opacity="0.22"/><circle cx="60" cy="80" r="1.3" fill="#B6B58A" fill-opacity="0.22"/><circle cx="60" cy="100" r="1.3" fill="#B6B58A" fill-opacity="0.22"/><circle cx="60" cy="120" r="1.3" fill="#B6B58A" fill-opacity="0.22"/><circle cx="60" cy="140" r="1.3" fill="#B6B58A" fill-opacity="0.22"/><circle cx="60" cy="160" r="1.3" fill="#B6B58A" fill-opacity="0.22"/><circle cx="80" cy="0" r="1.3" fill="#B6B58A" fill-opacity="0.22"/><circle cx="80" cy="20" r="1.3" fill="#B6B58A" fill-opacity="0.22"/><circle cx="80" cy="40" r="1.3" fill="#B6B58A" fill-opacity="0.22"/><circle cx="80" cy="60" r="1.3" fill="#B6B58A" fill-opacity="0.22"/><circle cx="80" cy="80" r="1.3" fill="#B6B58A" fill-opacity="0.22"/><circle cx="80" cy="100" r="1.3" fill="#B6B58A" fill-opacity="0.22"/><circle cx="80" cy="120" r="1.3" fill="#B6B58A" fill-opacity="0.22"/><circle cx="80" cy="140" r="1.3" fill="#B6B58A" fill-opacity="0.22"/><circle cx="80" cy="160" r="1.3" fill="#B6B58A" fill-opacity="0.22"/><circle cx="100" cy="0" r="1.3" fill="#B6B58A" fill-opacity="0.22"/><circle cx="100" cy="20" r="1.3" fill="#B6B58A" fill-opacity="0.22"/><circle cx="100" cy="40" r="1.3" fill="#B6B58A" fill-opacity="0.22"/><circle cx="100" cy="60" r="1.3" fill="#B6B58A" fill-opacity="0.22"/><circle cx="100" cy="80" r="1.3" fill="#B6B58A" fill-opacity="0.22"/><circle cx="100" cy="100" r="1.3" fill="#B6B58A" fill-opacity="0.22"/><circle cx="100" cy="120" r="1.3" fill="#B6B58A" fill-opacity="0.22"/><circle cx="100" cy="140" r="1.3" fill="#B6B58A" fill-opacity="0.22"/><circle cx="100" cy="160" r="1.3" fill="#B6B58A" fill-opacity="0.22"/><circle cx="120" cy="0" r="1.3" fill="#B6B58A" fill-opacity="0.22"/><circle cx="120" cy="20" r="1.3" fill="#B6B58A" fill-opacity="0.22"/><circle cx="120" cy="40" r="1.3" fill="#B6B58A" fill-opacity="0.22"/><circle cx="120" cy="60" r="1.3" fill="#B6B58A" fill-opacity="0.22"/><circle cx="120" cy="80" r="1.3" fill="#B6B58A" fill-opacity="0.22"/><circle cx="120" cy="100" r="1.3" fill="#B6B58A" fill-opacity="0.22"/><circle cx="120" cy="120" r="1.3" fill="#B6B58A" fill-opacity="0.22"/><circle cx="120" cy="140" r="1.3" fill="#B6B58A" fill-opacity="0.22"/><circle cx="120" cy="160" r="1.3" fill="#B6B58A" fill-opacity="0.22"/><circle cx="140" cy="0" r="1.3" fill="#B6B58A" fill-opacity="0.22"/><circle cx="140" cy="20" r="1.3" fill="#B6B58A" fill-opacity="0.22"/><circle cx="140" cy="40" r="1.3" fill="#B6B58A" fill-opacity="0.22"/><circle cx="140" cy="60" r="1.3" fill="#B6B58A" fill-opacity="0.22"/><circle cx="140" cy="80" r="1.3" fill="#B6B58A" fill-opacity="0.22"/><circle cx="140" cy="100" r="1.3" fill="#B6B58A" fill-opacity="0.22"/><circle cx="140" cy="120" r="1.3" fill="#B6B58A" fill-opacity="0.22"/><circle cx="140" cy="140" r="1.3" fill="#B6B58A" fill-opacity="0.22"/><circle cx="140" cy="160" r="1.3" fill="#B6B58A" fill-opacity="0.22"/><circle cx="160" cy="0" r="1.3" fill="#B6B58A" fill-opacity="0.22"/><circle cx="160" cy="20" r="1.3" fill="#B6B58A" fill-opacity="0.22"/><circle cx="160" cy="40" r="1.3" fill="#B6B58A" fill-opacity="0.22"/><circle cx="160" cy="60" r="1.3" fill="#B6B58A" fill-opacity="0.22"/><circle cx="160" cy="80" r="1.3" fill="#B6B58A" fill-opacity="0.22"/><circle cx="160" cy="100" r="1.3" fill="#B6B58A" fill-opacity="0.22"/><circle cx="160" cy="120" r="1.3" fill="#B6B58A" fill-opacity="0.22"/><circle cx="160" cy="140" r="1.3" fill="#B6B58A" fill-opacity="0.22"/><circle cx="160" cy="160" r="1.3" fill="#B6B58A" fill-opacity="0.22"/></svg>