<svg xmlns="http://www.w3.org/2000/svg" width="520" height="520" viewBox="0 0 520 520" font-family="'JetBrains Mono','Spline Sans Mono',ui-monospace,monospace"><defs><radialGradient id="sweep" cx="50%" cy="50%" r="50%"><stop offset="0%" stop-color="#62BE92" stop-opacity="0.0"/><stop offset="80%" stop-color="#62BE92" stop-opacity="0.10"/><stop offset="100%" stop-color="#62BE92" stop-opacity="0.22"/></radialGradient></defs><circle cx="260.0" cy="260.0" r="60" fill="none" stroke="#86855F" stroke-opacity="0.25"/><text x="264.0" y="214.0" fill="#86855F" fill-opacity="0.6" font-size="10" letter-spacing="1">2 KM</text><circle cx="260.0" cy="260.0" r="120" fill="none" stroke="#86855F" stroke-opacity="0.25"/><text x="264.0" y="154.0" fill="#86855F" fill-opacity="0.6" font-size="10" letter-spacing="1">4 KM</text><circle cx="260.0" cy="260.0" r="180" fill="none" stroke="#86855F" stroke-opacity="0.25"/><text x="264.0" y="94.0" fill="#86855F" fill-opacity="0.6" font-size="10" letter-spacing="1">6 KM</text><circle cx="260.0" cy="260.0" r="235" fill="none" stroke="#86855F" stroke-opacity="0.5"/><text x="264.0" y="39.0" fill="#86855F" fill-opacity="0.6" font-size="10" letter-spacing="1">8 KM</text><line x1="304.0" y1="260.0" x2="495.0" y2="260.0" stroke="#86855F" stroke-opacity="0.12"/><line x1="298.1" y1="282.0" x2="463.5" y2="377.5" stroke="#86855F" stroke-opacity="0.12"/><line x1="282.0" y1="298.1" x2="377.5" y2="463.5" stroke="#86855F" stroke-opacity="0.12"/><line x1="260.0" y1="304.0" x2="260.0" y2="495.0" stroke="#86855F" stroke-opacity="0.12"/><line x1="238.0" y1="298.1" x2="142.5" y2="463.5" stroke="#86855F" stroke-opacity="0.12"/><line x1="221.9" y1="282.0" x2="56.5" y2="377.5" stroke="#86855F" stroke-opacity="0.12"/><line x1="216.0" y1="260.0" x2="25.0" y2="260.0" stroke="#86855F" stroke-opacity="0.12"/><line x1="221.9" y1="238.0" x2="56.5" y2="142.5" stroke="#86855F" stroke-opacity="0.12"/><line x1="238.0" y1="221.9" x2="142.5" y2="56.5" stroke="#86855F" stroke-opacity="0.12"/><line x1="260.0" y1="216.0" x2="260.0" y2="25.0" stroke="#86855F" stroke-opacity="0.12"/><line x1="282.0" y1="221.9" x2="377.5" y2="56.5" stroke="#86855F" stroke-opacity="0.12"/><line x1="298.1" y1="238.0" x2="463.5" y2="142.5" stroke="#86855F" stroke-opacity="0.12"/><line x1="488.0" y1="260.0" x2="495.0" y2="260.0" stroke="#86855F" stroke-opacity="0.4"/><line x1="484.5" y1="299.6" x2="491.4" y2="300.8" stroke="#86855F" stroke-opacity="0.4"/><line x1="474.2" y1="338.0" x2="480.8" y2="340.4" stroke="#86855F" stroke-opacity="0.4"/><line x1="457.5" y1="374.0" x2="463.5" y2="377.5" stroke="#86855F" stroke-opacity="0.4"/><line x1="434.7" y1="406.6" x2="440.0" y2="411.1" stroke="#86855F" stroke-opacity="0.4"/><line x1="406.6" y1="434.7" x2="411.1" y2="440.0" stroke="#86855F" stroke-opacity="0.4"/><line x1="374.0" y1="457.5" x2="377.5" y2="463.5" stroke="#86855F" stroke-opacity="0.4"/><line x1="338.0" y1="474.2" x2="340.4" y2="480.8" stroke="#86855F" stroke-opacity="0.4"/><line x1="299.6" y1="484.5" x2="300.8" y2="491.4" stroke="#86855F" stroke-opacity="0.4"/><line x1="260.0" y1="488.0" x2="260.0" y2="495.0" stroke="#86855F" stroke-opacity="0.4"/><line x1="220.4" y1="484.5" x2="219.2" y2="491.4" stroke="#86855F" stroke-opacity="0.4"/><line x1="182.0" y1="474.2" x2="179.6" y2="480.8" stroke="#86855F" stroke-opacity="0.4"/><line x1="146.0" y1="457.5" x2="142.5" y2="463.5" stroke="#86855F" stroke-opacity="0.4"/><line x1="113.4" y1="434.7" x2="108.9" y2="440.0" stroke="#86855F" stroke-opacity="0.4"/><line x1="85.3" y1="406.6" x2="80.0" y2="411.1" stroke="#86855F" stroke-opacity="0.4"/><line x1="62.5" y1="374.0" x2="56.5" y2="377.5" stroke="#86855F" stroke-opacity="0.4"/><line x1="45.8" y1="338.0" x2="39.2" y2="340.4" stroke="#86855F" stroke-opacity="0.4"/><line x1="35.5" y1="299.6" x2="28.6" y2="300.8" stroke="#86855F" stroke-opacity="0.4"/><line x1="32.0" y1="260.0" x2="25.0" y2="260.0" stroke="#86855F" stroke-opacity="0.4"/><line x1="35.5" y1="220.4" x2="28.6" y2="219.2" stroke="#86855F" stroke-opacity="0.4"/><line x1="45.8" y1="182.0" x2="39.2" y2="179.6" stroke="#86855F" stroke-opacity="0.4"/><line x1="62.5" y1="146.0" x2="56.5" y2="142.5" stroke="#86855F" stroke-opacity="0.4"/><line x1="85.3" y1="113.4" x2="80.0" y2="108.9" stroke="#86855F" stroke-opacity="0.4"/><line x1="113.4" y1="85.3" x2="108.9" y2="80.0" stroke="#86855F" stroke-opacity="0.4"/><line x1="146.0" y1="62.5" x2="142.5" y2="56.5" stroke="#86855F" stroke-opacity="0.4"/><line x1="182.0" y1="45.8" x2="179.6" y2="39.2" stroke="#86855F" stroke-opacity="0.4"/><line x1="220.4" y1="35.5" x2="219.2" y2="28.6" stroke="#86855F" stroke-opacity="0.4"/><line x1="260.0" y1="32.0" x2="260.0" y2="25.0" stroke="#86855F" stroke-opacity="0.4"/><line x1="299.6" y1="35.5" x2="300.8" y2="28.6" stroke="#86855F" stroke-opacity="0.4"/><line x1="338.0" y1="45.8" x2="340.4" y2="39.2" stroke="#86855F" stroke-opacity="0.4"/><line x1="374.0" y1="62.5" x2="377.5" y2="56.5" stroke="#86855F" stroke-opacity="0.4"/><line x1="406.6" y1="85.3" x2="411.1" y2="80.0" stroke="#86855F" stroke-opacity="0.4"/><line x1="434.7" y1="113.4" x2="440.0" y2="108.9" stroke="#86855F" stroke-opacity="0.4"/><line x1="457.5" y1="146.0" x2="463.5" y2="142.5" stroke="#86855F" stroke-opacity="0.4"/><line x1="474.2" y1="182.0" x2="480.8" y2="179.6" stroke="#86855F" stroke-opacity="0.4"/><line x1="484.5" y1="220.4" x2="491.4" y2="219.2" stroke="#86855F" stroke-opacity="0.4"/><g><path d="M260.0 260.0 L260.0 25.0 A235 235 0 0 1 440.0 108.9 Z" fill="url(#sweep)"><animateTransform attributeName="transform" type="rotate" from="0 260.0 260.0" to="360 260.0 260.0" dur="6s" repeatCount="indefinite"/></path></g><circle cx="295.0" cy="199.4" r="3" fill="#86855F" fill-opacity="0.9"/><circle cx="374.9" cy="356.4" r="3" fill="#86855F" fill-opacity="0.9"/><circle cx="147.2" cy="219.0" r="3" fill="#86855F" fill-opacity="0.9"/><circle cx="177.7" cy="212.5" r="4" fill="#D58A43" fill-opacity="0.9"/><circle cx="177.7" cy="212.5" r="11" fill="none" stroke="#D58A43" stroke-opacity="0.8"><animate attributeName="r" values="8;16;8" dur="2s" repeatCount="indefinite"/><animate attributeName="stroke-opacity" values="0.9;0.1;0.9" dur="2s" repeatCount="indefinite"/></circle><path d="M161.7 212.5 h8 M185.7 212.5 h8 M177.7 196.5 v8 M177.7 220.5 v8" stroke="#D58A43" stroke-opacity="0.9"/><text x="195.7" y="200.5" fill="#D58A43" font-size="11" letter-spacing="1">TRK-07 · LOCK</text><circle cx="260.0" cy="260.0" r="4" fill="#E7E7DD"/></svg>