<svg xmlns="http://www.w3.org/2000/svg" width="1200" height="800" viewBox="0 0 1200 800"><polyline points="396.6,300.0 397.1,301.2 397.7,302.5 398.2,303.8 398.7,305.1 399.0,306.5 399.1,307.9 398.8,309.2 398.2,310.5 397.2,311.7 395.8,312.8 394.1,313.7 392.1,314.5 389.9,315.0 387.7,315.5 385.4,315.8 383.2,316.0 381.2,316.2 379.3,316.5 377.7,316.9 376.2,317.4 375.0,318.2 373.9,319.3 372.8,320.6 371.6,322.2 370.4,324.0 368.9,326.0 367.2,328.0 365.1,330.0 362.7,331.9 360.0,333.6 357.0,334.9 353.9,335.8 350.7,336.3 347.6,336.3 344.6,335.7 341.8,334.7 339.4,333.2 337.5,331.3 336.1,329.1 335.1,326.8 334.6,324.3 334.5,321.8 334.7,319.3 335.2,317.1 335.8,315.0 336.4,313.2 337.0,311.6 337.4,310.2 337.6,309.0 337.5,308.1 337.2,307.2 336.6,306.5 335.9,305.7 335.1,305.0 334.2,304.3 333.3,303.5 332.5,302.7 331.8,301.8 331.3,300.9 331.0,300.0 330.7,299.0 330.6,298.1 330.5,297.1 330.5,296.1 330.3,295.1 330.1,294.0 329.6,292.8 329.0,291.5 328.3,290.0 327.4,288.3 326.5,286.5 325.5,284.5 324.7,282.3 324.1,280.0 323.8,277.6 324.0,275.2 324.6,272.9 325.7,270.7 327.4,268.9 329.6,267.3 332.2,266.2 335.3,265.6 338.6,265.4 342.0,265.7 345.5,266.5 348.9,267.8 352.2,269.3 355.1,271.1 357.7,273.1 360.0,275.1 361.9,277.0 363.6,278.8 365.0,280.3 366.3,281.6 367.6,282.5 368.8,283.1 370.2,283.5 371.8,283.5 373.6,283.4 375.6,283.2 377.8,283.0 380.2,282.8 382.6,282.7 385.0,282.8 387.4,283.0 389.5,283.5 391.5,284.2 393.1,285.1 394.3,286.2 395.2,287.4 395.8,288.7 396.1,290.0 396.2,291.4 396.2,292.7 396.0,294.0 395.9,295.3 395.9,296.5 396.0,297.7 396.2,298.8 396.6,300.0" fill="none" stroke="#86855F" stroke-width="1" stroke-opacity="0.16"/><polyline points="423.8,300.0 424.1,302.1 424.9,304.2 426.1,306.5 427.6,308.9 429.3,311.5 431.1,314.3 432.7,317.3 434.1,320.4 435.0,323.7 435.5,327.0 435.3,330.3 434.5,333.6 433.0,336.7 430.9,339.6 428.3,342.3 425.1,344.8 421.5,347.1 417.6,349.1 413.4,350.9 409.0,352.6 404.4,354.0 399.7,355.4 395.0,356.6 390.2,357.6 385.3,358.6 380.4,359.5 375.4,360.2 370.3,360.7 365.2,360.9 360.0,360.9 354.9,360.6 349.8,359.9 345.0,358.8 340.3,357.4 336.0,355.6 332.0,353.4 328.5,351.0 325.3,348.3 322.6,345.5 320.3,342.6 318.4,339.8 316.6,337.0 315.0,334.4 313.5,332.0 311.8,329.9 309.9,328.0 307.7,326.3 305.1,324.7 302.1,323.3 298.7,321.9 295.0,320.5 290.9,319.1 286.8,317.4 282.6,315.6 278.6,313.5 274.9,311.2 271.7,308.7 269.1,305.9 267.2,303.0 266.1,300.0 265.8,296.9 266.3,293.9 267.5,290.9 269.4,288.1 271.8,285.3 274.6,282.8 277.7,280.4 280.9,278.2 284.2,276.0 287.4,274.0 290.5,272.0 293.5,270.0 296.3,268.0 299.0,266.0 301.7,263.8 304.3,261.7 307.0,259.5 309.9,257.3 313.0,255.1 316.3,253.1 319.9,251.2 323.7,249.5 327.9,248.1 332.2,246.9 336.7,246.1 341.3,245.5 346.0,245.1 350.7,245.1 355.4,245.2 360.0,245.4 364.6,245.7 369.1,246.1 373.7,246.5 378.2,246.9 382.8,247.2 387.5,247.6 392.2,248.0 397.0,248.4 401.9,249.0 406.8,249.7 411.7,250.7 416.4,251.9 420.8,253.5 424.8,255.4 428.4,257.6 431.4,260.2 433.6,263.0 435.2,266.1 436.0,269.4 436.1,272.7 435.6,276.1 434.5,279.4 433.0,282.6 431.2,285.7 429.3,288.5 427.5,291.1 426.0,293.5 424.8,295.8 424.0,297.9 423.8,300.0" fill="none" stroke="#86855F" stroke-width="1" stroke-opacity="0.07"/><polyline points="482.0,300.0 483.7,304.0 485.4,308.2 487.1,312.5 488.5,316.9 489.7,321.5 490.4,326.3 490.5,331.1 489.9,335.9 488.5,340.6 486.3,345.2 483.1,349.6 479.1,353.6 474.2,357.3 468.6,360.6 462.4,363.5 455.6,365.9 448.6,367.8 441.3,369.4 433.9,370.6 426.6,371.5 419.4,372.3 412.4,372.9 405.5,373.5 398.9,374.2 392.4,374.9 386.0,375.8 379.6,376.7 373.2,377.8 366.7,378.9 360.0,380.0 353.2,380.9 346.1,381.7 339.0,382.3 331.7,382.5 324.4,382.3 317.2,381.7 310.1,380.7 303.2,379.1 296.6,377.2 290.4,374.8 284.6,372.0 279.2,368.9 274.2,365.7 269.7,362.2 265.5,358.6 261.6,354.9 257.9,351.3 254.5,347.5 251.2,343.8 248.0,340.1 245.0,336.3 242.1,332.5 239.5,328.7 237.1,324.8 235.0,320.8 233.4,316.7 232.3,312.5 231.7,308.4 231.7,304.2 232.3,300.0 233.6,295.9 235.4,291.9 237.6,288.0 240.3,284.2 243.3,280.6 246.4,277.1 249.6,273.7 252.7,270.4 255.7,267.0 258.5,263.7 261.2,260.2 263.6,256.6 266.0,252.8 268.3,248.8 270.7,244.6 273.3,240.3 276.2,235.8 279.5,231.3 283.4,226.9 287.9,222.6 293.1,218.6 298.9,215.0 305.4,211.8 312.4,209.2 319.9,207.3 327.8,206.0 335.8,205.4 344.0,205.4 352.1,206.1 360.0,207.4 367.7,209.1 375.1,211.2 382.1,213.6 388.7,216.2 395.0,218.9 401.0,221.7 406.8,224.4 412.3,227.1 417.7,229.8 422.9,232.4 428.0,235.1 433.0,237.7 437.9,240.4 442.6,243.1 447.1,246.0 451.4,249.0 455.4,252.1 459.0,255.4 462.2,258.8 465.1,262.4 467.6,266.0 469.7,269.7 471.5,273.5 473.1,277.2 474.6,281.0 476.0,284.7 477.4,288.5 478.8,292.3 480.3,296.1 482.0,300.0" fill="none" stroke="#86855F" stroke-width="1" stroke-opacity="0.07"/><polyline points="530.4,300.0 528.7,305.5 526.9,310.9 525.1,316.2 523.3,321.5 521.5,326.8 519.6,332.1 517.4,337.5 515.1,342.8 512.4,348.1 509.2,353.4 505.6,358.6 501.5,363.7 496.7,368.6 491.4,373.3 485.5,377.8 479.1,382.0 472.2,385.9 465.0,389.6 457.4,393.0 449.5,396.1 441.4,399.1 433.1,401.9 424.7,404.5 416.1,407.0 407.3,409.4 398.3,411.6 389.1,413.7 379.6,415.7 369.9,417.3 360.0,418.7 349.9,419.6 339.7,420.0 329.4,419.9 319.1,419.2 309.1,417.8 299.3,415.8 290.0,413.0 281.3,409.6 273.2,405.7 265.8,401.2 259.2,396.2 253.4,391.0 248.3,385.5 243.8,380.0 240.0,374.4 236.5,368.9 233.4,363.6 230.3,358.4 227.4,353.4 224.3,348.6 221.0,343.9 217.6,339.3 213.9,334.8 210.0,330.2 206.0,325.6 202.1,320.8 198.2,315.9 194.6,310.8 191.4,305.5 188.7,300.0 186.7,294.4 185.4,288.6 184.8,282.8 185.1,277.0 186.2,271.1 188.1,265.4 190.6,259.7 193.8,254.1 197.6,248.7 201.8,243.4 206.5,238.2 211.6,233.1 217.0,228.2 222.7,223.4 228.8,218.6 235.2,214.0 242.0,209.6 249.2,205.4 256.8,201.5 264.9,197.8 273.4,194.6 282.3,191.8 291.6,189.5 301.2,187.8 311.0,186.6 320.9,186.0 330.9,186.0 340.8,186.6 350.5,187.6 360.0,189.0 369.2,190.8 378.2,192.8 386.8,194.9 395.3,197.1 403.5,199.3 411.6,201.5 419.7,203.5 427.8,205.5 436.0,207.5 444.3,209.4 452.8,211.4 461.3,213.6 469.8,215.9 478.4,218.5 486.7,221.5 494.7,224.8 502.3,228.5 509.3,232.7 515.6,237.3 521.1,242.3 525.6,247.7 529.2,253.3 531.8,259.1 533.6,265.0 534.5,271.0 534.6,277.0 534.2,282.9 533.2,288.7 531.9,294.4 530.4,300.0" fill="none" stroke="#86855F" stroke-width="1" stroke-opacity="0.07"/><polyline points="562.5,300.0 562.2,306.6 562.0,313.2 562.0,319.8 562.0,326.6 561.9,333.5 561.8,340.7 561.4,347.9 560.6,355.4 559.1,362.9 556.9,370.5 553.9,378.1 549.8,385.5 544.6,392.7 538.4,399.6 531.0,406.0 522.7,412.0 513.3,417.4 503.1,422.1 492.3,426.3 480.8,429.7 469.0,432.6 456.9,434.9 444.6,436.7 432.3,438.1 420.1,439.0 407.9,439.6 395.8,440.0 383.7,440.1 371.8,439.9 360.0,439.6 348.2,439.0 336.6,438.2 325.0,437.1 313.5,435.6 302.2,433.8 291.1,431.6 280.2,428.9 269.7,425.8 259.5,422.3 249.8,418.4 240.5,414.0 231.8,409.4 223.5,404.5 215.7,399.4 208.2,394.1 201.2,388.7 194.4,383.1 187.8,377.6 181.4,371.9 175.1,366.2 168.9,360.4 162.8,354.4 156.9,348.3 151.2,342.1 145.9,335.6 141.0,328.9 136.7,321.9 133.2,314.8 130.5,307.5 128.9,300.0 128.4,292.5 129.0,284.9 130.8,277.5 133.7,270.2 137.8,263.1 142.8,256.2 148.7,249.7 155.3,243.5 162.4,237.6 169.9,231.9 177.6,226.6 185.5,221.4 193.4,216.4 201.3,211.4 209.3,206.5 217.2,201.6 225.1,196.7 233.2,191.8 241.6,186.9 250.2,182.1 259.2,177.3 268.6,172.8 278.6,168.5 289.0,164.6 300.0,161.1 311.4,158.2 323.2,155.9 335.3,154.3 347.6,153.3 360.0,152.9 372.4,153.3 384.7,154.2 396.9,155.7 408.8,157.7 420.4,160.2 431.8,163.0 442.9,166.2 453.6,169.6 464.1,173.3 474.3,177.2 484.2,181.4 493.8,185.9 503.0,190.6 511.7,195.5 520.0,200.8 527.8,206.3 534.8,212.2 541.2,218.4 546.8,224.8 551.6,231.4 555.5,238.3 558.5,245.2 560.8,252.2 562.3,259.2 563.2,266.2 563.5,273.2 563.5,280.0 563.3,286.8 562.9,293.4 562.5,300.0" fill="none" stroke="#86855F" stroke-width="1" stroke-opacity="0.07"/><polyline points="627.8,300.0 627.4,308.7 626.5,317.4 625.0,326.0 623.0,334.7 620.5,343.3 617.4,351.9 613.8,360.4 609.5,368.9 604.4,377.2 598.6,385.4 592.0,393.4 584.4,401.1 576.0,408.4 566.7,415.4 556.5,421.8 545.5,427.7 533.9,433.1 521.6,437.9 508.9,442.1 495.8,445.8 482.4,449.0 468.9,451.7 455.4,454.1 441.8,456.1 428.3,458.0 414.7,459.6 401.2,461.1 387.6,462.5 373.8,463.8 360.0,465.0 346.0,465.9 331.8,466.6 317.4,467.0 302.8,466.9 288.2,466.2 273.5,465.0 259.0,463.1 244.8,460.4 231.0,457.0 217.7,452.8 205.1,447.8 193.4,442.2 182.5,435.9 172.6,429.1 163.6,421.8 155.5,414.2 148.4,406.3 142.0,398.2 136.4,390.0 131.3,381.9 126.8,373.7 122.7,365.5 119.0,357.4 115.5,349.3 112.4,341.1 109.5,333.0 107.0,324.8 104.9,316.6 103.2,308.3 102.1,300.0 101.7,291.6 101.9,283.2 103.0,274.8 104.8,266.4 107.5,258.0 110.9,249.8 115.2,241.7 120.1,233.8 125.7,226.0 131.9,218.3 138.6,210.8 145.7,203.5 153.3,196.2 161.3,189.1 169.7,182.0 178.5,175.0 187.8,168.1 197.6,161.4 208.0,154.9 219.1,148.7 230.8,142.8 243.3,137.4 256.4,132.6 270.1,128.4 284.4,125.0 299.1,122.4 314.2,120.8 329.5,120.0 344.8,120.2 360.0,121.3 374.9,123.2 389.5,125.9 403.6,129.3 417.2,133.2 430.2,137.5 442.7,142.2 454.7,147.1 466.2,152.1 477.4,157.2 488.2,162.3 498.9,167.4 509.4,172.5 519.9,177.6 530.2,182.8 540.4,188.2 550.5,193.7 560.3,199.4 569.8,205.5 578.9,211.9 587.5,218.6 595.3,225.7 602.4,233.1 608.7,240.8 614.1,248.8 618.5,257.0 622.1,265.5 624.7,274.0 626.5,282.6 627.5,291.3 627.8,300.0" fill="none" stroke="#86855F" stroke-width="1" stroke-opacity="0.16"/><polyline points="666.5,300.0 663.5,309.9 660.0,319.5 656.1,329.1 652.0,338.5 647.7,347.8 643.3,357.1 638.7,366.3 633.8,375.6 628.7,384.9 623.1,394.2 617.0,403.5 610.3,412.7 602.8,421.9 594.4,430.8 585.1,439.5 574.7,447.9 563.4,455.8 551.2,463.1 538.0,469.9 524.0,476.1 509.2,481.6 493.8,486.4 478.0,490.5 461.7,494.0 445.1,496.9 428.3,499.2 411.3,500.9 394.3,502.1 377.1,502.8 360.0,502.9 342.9,502.6 325.8,501.7 308.8,500.3 292.0,498.3 275.4,495.7 259.2,492.4 243.3,488.4 228.0,483.8 213.3,478.5 199.3,472.6 186.1,466.0 173.8,458.9 162.4,451.3 151.9,443.3 142.3,435.0 133.5,426.5 125.4,417.8 117.9,409.1 110.9,400.3 104.3,391.5 98.0,382.8 91.8,374.0 85.7,365.3 79.7,356.5 73.7,347.6 68.0,338.5 62.4,329.2 57.3,319.7 52.7,310.0 48.8,300.0 45.8,289.8 43.9,279.4 43.2,268.9 43.8,258.3 45.8,247.8 49.3,237.4 54.2,227.2 60.4,217.3 68.0,207.7 76.7,198.6 86.5,189.9 97.1,181.6 108.6,173.8 120.6,166.4 133.2,159.4 146.1,152.7 159.5,146.5 173.1,140.5 187.1,134.9 201.3,129.6 215.9,124.6 230.7,120.0 246.0,115.8 261.5,112.1 277.4,108.9 293.6,106.2 310.0,104.2 326.6,102.8 343.3,102.2 360.0,102.2 376.7,102.9 393.2,104.3 409.5,106.3 425.6,108.8 441.3,111.8 456.8,115.3 471.9,119.2 486.8,123.4 501.5,127.9 515.8,132.6 530.0,137.7 544.0,143.0 557.7,148.7 571.1,154.6 584.2,161.0 596.8,167.8 608.8,175.1 620.2,182.8 630.6,191.0 640.1,199.7 648.5,208.9 655.5,218.4 661.3,228.3 665.7,238.4 668.8,248.7 670.5,259.1 671.0,269.5 670.4,279.8 668.9,290.0 666.5,300.0" fill="none" stroke="#86855F" stroke-width="1" stroke-opacity="0.07"/><polyline points="708.4,300.0 708.0,311.3 706.9,322.6 705.3,333.9 703.0,345.2 700.2,356.5 696.9,367.9 692.9,379.2 688.2,390.6 682.8,402.0 676.5,413.3 669.2,424.5 660.8,435.5 651.2,446.2 640.4,456.6 628.3,466.4 615.0,475.6 600.4,484.1 584.7,491.8 568.0,498.6 550.4,504.5 532.1,509.5 513.3,513.5 494.2,516.7 474.8,519.0 455.4,520.7 436.0,521.6 416.7,522.0 397.6,521.9 378.7,521.4 360.0,520.6 341.4,519.5 323.0,518.2 304.7,516.5 286.4,514.6 268.2,512.3 250.1,509.6 232.2,506.5 214.4,502.8 196.8,498.6 179.6,493.7 163.0,488.1 146.9,481.9 131.5,475.0 116.8,467.4 103.1,459.3 90.3,450.6 78.4,441.4 67.4,431.8 57.4,421.8 48.2,411.6 39.9,401.1 32.4,390.4 25.6,379.6 19.5,368.6 14.1,357.5 9.4,346.2 5.4,334.8 2.3,323.3 0.0,311.7 -1.3,300.0 -1.5,288.3 -0.6,276.5 1.5,264.8 4.8,253.2 9.5,241.8 15.4,230.6 22.5,219.7 30.8,209.1 40.1,199.0 50.4,189.2 61.5,179.8 73.2,170.8 85.5,162.2 98.3,153.9 111.4,145.9 124.8,138.1 138.6,130.5 152.6,123.0 167.0,115.7 181.8,108.6 197.0,101.7 212.8,95.0 229.2,88.7 246.2,82.8 263.8,77.5 282.1,72.8 301.0,68.9 320.3,65.9 340.0,63.9 360.0,62.9 380.0,62.9 400.0,64.0 419.7,66.2 439.1,69.3 457.9,73.4 476.2,78.3 493.7,84.0 510.6,90.3 526.7,97.1 542.2,104.4 556.9,112.0 571.1,119.9 584.6,128.0 597.6,136.4 610.0,145.0 621.9,153.8 633.3,162.8 644.1,172.0 654.3,181.5 663.7,191.3 672.4,201.3 680.2,211.6 687.1,222.2 693.0,232.9 698.0,243.9 701.9,254.9 704.9,266.1 706.9,277.4 708.1,288.7 708.4,300.0" fill="none" stroke="#86855F" stroke-width="1" stroke-opacity="0.07"/><polyline points="773.0,300.0 771.2,313.4 768.1,326.6 763.8,339.7 758.4,352.5 752.1,365.1 744.9,377.5 737.0,389.7 728.3,401.7 719.0,413.4 709.0,424.9 698.3,436.2 686.9,447.3 674.7,458.0 661.7,468.4 647.8,478.5 633.1,488.0 617.4,497.1 600.8,505.5 583.5,513.3 565.3,520.5 546.4,526.9 527.0,532.5 507.0,537.4 486.6,541.7 466.0,545.2 445.0,548.0 423.9,550.3 402.7,552.0 381.4,553.2 360.0,553.8 338.5,554.0 317.0,553.6 295.5,552.7 273.9,551.2 252.4,549.0 231.0,546.2 209.8,542.6 188.9,538.2 168.6,532.9 148.9,526.7 129.9,519.7 111.9,511.7 95.1,502.8 79.4,493.2 65.0,482.9 52.0,471.9 40.4,460.5 30.0,448.6 21.0,436.5 13.1,424.2 6.2,411.8 0.2,399.3 -5.1,386.9 -9.8,374.5 -13.9,362.1 -17.7,349.8 -21.0,337.4 -24.0,325.0 -26.6,312.6 -28.7,300.0 -30.2,287.3 -30.9,274.5 -30.8,261.6 -29.7,248.6 -27.5,235.6 -24.1,222.6 -19.3,209.7 -13.2,197.0 -5.6,184.5 3.2,172.3 13.5,160.5 24.9,149.1 37.5,138.1 51.2,127.6 65.8,117.6 81.3,108.1 97.6,99.1 114.6,90.6 132.3,82.6 150.6,75.2 169.5,68.3 189.0,61.9 209.1,56.2 229.6,51.2 250.6,46.9 272.1,43.5 293.8,40.9 315.8,39.3 337.9,38.6 360.0,39.0 381.9,40.3 403.6,42.7 424.9,46.0 445.7,50.1 465.9,55.0 485.4,60.7 504.3,66.9 522.6,73.6 540.3,80.6 557.4,88.0 574.0,95.7 590.2,103.5 606.1,111.6 621.7,119.8 637.0,128.2 652.1,137.0 666.8,146.0 681.2,155.3 695.0,165.1 708.2,175.4 720.6,186.1 732.0,197.3 742.3,209.0 751.3,221.2 758.8,233.7 764.9,246.6 769.3,259.8 772.1,273.1 773.3,286.6 773.0,300.0" fill="none" stroke="#86855F" stroke-width="1" stroke-opacity="0.07"/><polyline points="804.0,300.0 801.4,314.3 797.6,328.5 792.9,342.5 787.4,356.3 781.2,370.0 774.3,383.5 766.9,396.8 758.9,410.1 750.4,423.3 741.3,436.5 731.5,449.6 721.0,462.6 709.5,475.5 697.1,488.2 683.5,500.6 668.7,512.5 652.6,524.0 635.2,534.8 616.5,544.9 596.5,554.0 575.5,562.2 553.4,569.3 530.5,575.4 506.9,580.3 482.8,584.1 458.3,586.8 433.7,588.4 409.0,589.0 384.4,588.8 360.0,587.7 335.8,585.9 312.0,583.4 288.4,580.2 265.2,576.5 242.4,572.1 220.0,567.2 197.9,561.8 176.4,555.7 155.3,549.0 134.9,541.7 115.1,533.8 96.1,525.2 77.9,516.0 60.6,506.2 44.3,495.7 29.0,484.8 14.8,473.3 1.7,461.4 -10.5,449.2 -21.6,436.6 -31.8,423.8 -41.2,410.7 -49.8,397.5 -57.6,384.1 -64.8,370.6 -71.2,356.8 -77.0,342.9 -82.1,328.8 -86.3,314.5 -89.6,300.0 -91.8,285.3 -92.9,270.5 -92.6,255.6 -90.8,240.6 -87.3,225.7 -82.2,210.9 -75.3,196.4 -66.6,182.2 -56.2,168.5 -44.1,155.3 -30.5,142.8 -15.5,130.9 0.8,119.7 18.2,109.2 36.4,99.4 55.4,90.2 74.9,81.7 94.9,73.8 115.2,66.3 135.9,59.3 156.8,52.8 178.1,46.6 199.6,40.9 221.4,35.6 243.6,30.7 266.2,26.4 289.2,22.7 312.5,19.6 336.1,17.3 360.0,15.9 384.1,15.3 408.2,15.7 432.3,17.2 456.1,19.6 479.7,23.0 502.8,27.4 525.5,32.8 547.5,39.0 568.8,45.9 589.4,53.6 609.3,62.0 628.4,70.9 646.8,80.4 664.5,90.3 681.4,100.8 697.5,111.6 712.8,122.9 727.2,134.6 740.7,146.7 753.2,159.2 764.6,172.2 774.7,185.5 783.6,199.2 791.0,213.2 796.9,227.4 801.3,241.8 804.2,256.4 805.5,271.0 805.5,285.5 804.0,300.0" fill="none" stroke="#86855F" stroke-width="1" stroke-opacity="0.07"/><polyline points="856.5,300.0 856.7,316.1 855.4,332.3 852.6,348.4 848.3,364.3 842.6,380.2 835.7,395.8 827.5,411.3 818.1,426.5 807.6,441.4 796.0,456.1 783.2,470.4 769.4,484.4 754.4,498.0 738.2,511.1 720.9,523.7 702.3,535.7 682.6,547.0 661.7,557.5 639.7,567.0 616.7,575.7 592.8,583.2 568.1,589.8 542.8,595.2 517.0,599.6 490.9,602.9 464.7,605.3 438.3,606.7 412.1,607.2 386.0,607.1 360.0,606.2 334.2,604.8 308.7,602.8 283.3,600.3 258.1,597.4 233.0,593.9 208.0,590.0 183.2,585.6 158.6,580.5 134.2,574.8 110.2,568.3 86.6,561.0 63.7,552.8 41.6,543.8 20.5,533.8 0.5,522.9 -18.2,511.1 -35.5,498.6 -51.3,485.3 -65.5,471.3 -78.1,456.8 -89.1,441.9 -98.6,426.6 -106.6,411.0 -113.2,395.3 -118.5,379.5 -122.7,363.6 -125.8,347.7 -127.9,331.8 -129.0,315.9 -129.2,300.0 -128.4,284.1 -126.6,268.3 -123.8,252.5 -119.9,236.8 -114.7,221.1 -108.3,205.7 -100.6,190.4 -91.5,175.4 -81.0,160.7 -69.2,146.4 -56.0,132.5 -41.5,119.1 -25.8,106.3 -9.0,94.0 8.8,82.2 27.5,71.0 47.0,60.4 67.3,50.3 88.4,40.7 110.0,31.6 132.4,23.0 155.3,15.0 178.9,7.5 203.1,0.6 228.0,-5.5 253.4,-10.9 279.4,-15.4 305.9,-18.9 332.8,-21.4 360.0,-22.7 387.3,-22.8 414.5,-21.6 441.5,-19.1 468.1,-15.3 494.1,-10.2 519.3,-4.0 543.7,3.3 567.1,11.6 589.4,20.8 610.7,30.8 630.9,41.3 650.2,52.4 668.5,63.8 685.9,75.6 702.6,87.6 718.6,99.8 733.9,112.3 748.7,124.9 762.9,137.8 776.4,150.9 789.3,164.4 801.4,178.2 812.6,192.3 822.9,206.8 832.0,221.6 839.8,236.8 846.2,252.3 851.2,268.0 854.6,283.9 856.5,300.0" fill="none" stroke="#86855F" stroke-width="1" stroke-opacity="0.16"/><polyline points="912.8,300.0 910.9,317.9 906.9,335.6 901.2,353.1 893.7,370.3 884.7,387.2 874.4,403.6 862.8,419.7 850.3,435.3 836.8,450.6 822.5,465.5 807.4,480.1 791.6,494.4 775.1,508.4 757.8,522.1 739.6,535.4 720.6,548.3 700.6,560.8 679.6,572.7 657.5,584.0 634.4,594.6 610.2,604.4 585.0,613.3 558.8,621.2 531.9,628.0 504.2,633.7 476.0,638.3 447.3,641.7 418.3,644.0 389.2,645.2 360.0,645.4 330.9,644.5 301.9,642.7 273.1,640.0 244.7,636.4 216.5,631.9 188.8,626.7 161.5,620.5 134.8,613.6 108.7,605.8 83.3,597.2 58.7,587.6 35.1,577.2 12.6,566.0 -8.7,553.9 -28.6,541.0 -47.2,527.3 -64.2,513.0 -79.6,498.0 -93.5,482.6 -105.8,466.7 -116.6,450.6 -126.0,434.2 -134.2,417.6 -141.2,401.0 -147.1,384.3 -152.2,367.5 -156.4,350.7 -159.9,333.9 -162.7,317.0 -164.8,300.0 -166.1,282.9 -166.6,265.7 -166.1,248.3 -164.4,230.9 -161.5,213.4 -157.1,195.8 -151.1,178.4 -143.4,161.1 -133.8,144.0 -122.3,127.3 -108.9,111.2 -93.7,95.6 -76.6,80.8 -57.9,66.7 -37.5,53.5 -15.8,41.2 7.2,29.8 31.2,19.4 56.1,9.8 81.7,1.2 108.0,-6.6 134.8,-13.6 162.0,-19.8 189.6,-25.2 217.5,-29.8 245.6,-33.7 274.0,-36.7 302.6,-38.9 331.2,-40.2 360.0,-40.6 388.7,-40.0 417.4,-38.4 445.8,-35.7 473.8,-32.1 501.5,-27.4 528.6,-21.6 555.0,-15.0 580.7,-7.4 605.7,1.1 629.8,10.3 653.1,20.2 675.6,30.7 697.3,41.7 718.3,53.3 738.5,65.3 758.0,77.8 776.8,90.7 794.8,104.1 812.0,118.0 828.4,132.3 843.8,147.2 858.0,162.5 870.9,178.4 882.4,194.8 892.2,211.6 900.3,228.8 906.5,246.3 910.7,264.1 912.8,282.0 912.8,300.0" fill="none" stroke="#86855F" stroke-width="1" stroke-opacity="0.07"/><polyline points="941.1,300.0 940.3,318.9 937.8,337.7 933.7,356.3 928.0,374.8 920.8,393.2 912.2,411.3 902.4,429.1 891.3,446.7 879.0,464.0 865.7,481.0 851.2,497.8 835.6,514.2 818.8,530.4 800.9,546.1 781.7,561.5 761.2,576.3 739.4,590.5 716.2,604.0 691.6,616.6 665.7,628.2 638.4,638.8 610.0,648.1 580.5,656.1 550.1,662.7 519.0,667.9 487.4,671.7 455.5,674.0 423.6,675.0 391.7,674.6 360.0,673.0 328.7,670.3 297.8,666.7 267.5,662.1 237.7,656.7 208.5,650.7 179.7,643.9 151.6,636.6 123.9,628.8 96.7,620.3 70.1,611.3 44.0,601.6 18.6,591.3 -6.1,580.3 -30.0,568.6 -53.0,556.1 -74.9,542.8 -95.6,528.7 -115.0,514.0 -132.9,498.5 -149.3,482.3 -164.2,465.6 -177.4,448.4 -189.1,430.7 -199.1,412.6 -207.6,394.3 -214.6,375.7 -220.2,357.0 -224.3,338.1 -227.1,319.1 -228.5,300.0 -228.6,280.9 -227.2,261.7 -224.5,242.6 -220.2,223.5 -214.3,204.6 -206.7,185.8 -197.4,167.3 -186.4,149.2 -173.5,131.5 -158.8,114.3 -142.3,97.7 -124.2,81.9 -104.4,66.9 -83.1,52.6 -60.5,39.3 -36.7,26.8 -11.9,15.2 13.7,4.5 40.1,-5.5 67.0,-14.6 94.5,-23.1 122.3,-30.9 150.7,-38.1 179.3,-44.7 208.4,-50.7 237.9,-56.1 267.8,-60.7 298.2,-64.7 328.9,-67.8 360.0,-69.9 391.4,-71.1 422.9,-71.1 454.5,-70.0 486.0,-67.5 517.2,-63.7 547.9,-58.6 578.0,-52.1 607.2,-44.3 635.5,-35.2 662.6,-25.0 688.6,-13.7 713.2,-1.4 736.5,11.7 758.5,25.6 779.2,40.1 798.6,55.1 816.8,70.6 833.9,86.5 849.7,102.8 864.5,119.4 878.1,136.3 890.6,153.5 901.9,171.0 911.9,188.8 920.6,206.9 927.9,225.2 933.6,243.7 937.8,262.4 940.3,281.1 941.1,300.0" fill="none" stroke="#86855F" stroke-width="1" stroke-opacity="0.07"/><polyline points="1001.2,300.0 1002.3,320.9 1001.2,341.8 997.8,362.6 992.2,383.3 984.3,403.7 974.4,423.8 962.5,443.4 948.7,462.5 933.3,481.1 916.3,499.1 897.8,516.5 878.1,533.4 857.2,549.6 835.1,565.2 812.0,580.2 787.7,594.5 762.5,608.2 736.2,621.0 708.9,633.1 680.6,644.3 651.4,654.6 621.2,663.8 590.3,671.9 558.6,678.9 526.3,684.7 493.5,689.3 460.3,692.7 426.9,694.8 393.5,695.8 360.0,695.7 326.7,694.4 293.5,692.2 260.6,689.0 228.0,684.9 195.8,679.9 163.9,674.2 132.4,667.6 101.3,660.2 70.7,652.0 40.6,643.0 11.2,633.0 -17.5,622.1 -45.2,610.2 -71.9,597.4 -97.3,583.5 -121.3,568.7 -143.7,552.9 -164.2,536.1 -182.9,518.6 -199.5,500.3 -214.1,481.3 -226.5,461.9 -236.9,442.1 -245.2,421.9 -251.7,401.6 -256.4,381.2 -259.5,360.8 -261.1,340.5 -261.4,320.2 -260.5,300.0 -258.4,279.9 -255.3,259.9 -251.1,240.0 -245.9,220.1 -239.6,200.4 -232.1,180.7 -223.2,161.2 -213.0,141.8 -201.3,122.7 -187.9,103.9 -172.8,85.5 -156.1,67.5 -137.5,50.2 -117.3,33.6 -95.3,17.7 -71.8,2.7 -46.8,-11.4 -20.4,-24.6 7.3,-36.8 36.0,-48.0 65.7,-58.2 96.2,-67.3 127.5,-75.6 159.4,-82.8 191.9,-89.0 224.9,-94.2 258.2,-98.4 291.9,-101.5 325.9,-103.5 360.0,-104.4 394.1,-104.0 428.2,-102.3 462.0,-99.4 495.5,-95.1 528.3,-89.5 560.5,-82.6 591.8,-74.4 622.1,-65.0 651.2,-54.4 679.2,-42.7 705.8,-30.2 731.2,-16.8 755.3,-2.7 778.2,12.0 799.9,27.2 820.6,42.9 840.3,58.9 859.0,75.2 876.9,91.9 894.0,108.8 910.3,126.2 925.6,143.9 940.0,162.0 953.3,180.5 965.4,199.4 976.1,218.8 985.2,238.6 992.5,258.8 997.9,279.3 1001.2,300.0" fill="none" stroke="#86855F" stroke-width="1" stroke-opacity="0.07"/><polyline points="1045.2,300.0 1043.9,322.2 1040.4,344.3 1034.6,366.2 1026.8,387.9 1016.9,409.1 1005.0,429.9 991.4,450.3 976.2,470.1 959.6,489.4 941.6,508.2 922.5,526.5 902.3,544.3 881.0,561.6 858.8,578.4 835.5,594.8 811.3,610.8 786.0,626.2 759.6,641.0 732.1,655.2 703.3,668.7 673.3,681.2 642.1,692.8 609.7,703.2 576.1,712.4 541.6,720.3 506.3,726.6 470.2,731.5 433.7,734.7 396.9,736.4 360.0,736.5 323.2,735.0 286.7,732.1 250.7,727.8 215.2,722.2 180.5,715.4 146.4,707.5 113.2,698.6 80.8,688.8 49.3,678.1 18.7,666.5 -10.9,654.1 -39.6,641.0 -67.2,627.1 -93.7,612.4 -118.9,596.9 -142.9,580.7 -165.4,563.8 -186.5,546.2 -205.9,527.9 -223.7,508.9 -239.7,489.4 -253.9,469.5 -266.4,449.1 -277.2,428.4 -286.2,407.4 -293.6,386.1 -299.5,364.8 -303.9,343.3 -306.8,321.7 -308.4,300.0 -308.7,278.3 -307.6,256.5 -305.2,234.7 -301.3,212.8 -296.0,191.0 -288.9,169.3 -280.2,147.6 -269.5,126.2 -256.9,105.1 -242.2,84.4 -225.4,64.3 -206.3,44.9 -185.2,26.3 -162.0,8.6 -136.8,-8.0 -109.8,-23.5 -81.1,-37.7 -51.0,-50.7 -19.7,-62.5 12.6,-73.0 45.8,-82.3 79.6,-90.4 113.9,-97.5 148.5,-103.5 183.4,-108.6 218.5,-112.7 253.7,-115.9 289.1,-118.4 324.5,-119.9 360.0,-120.6 395.5,-120.3 431.1,-119.1 466.5,-116.9 501.8,-113.6 536.8,-109.1 571.5,-103.5 605.6,-96.6 639.0,-88.5 671.6,-79.2 703.2,-68.6 733.8,-56.9 763.2,-44.0 791.2,-30.2 818.0,-15.4 843.4,0.3 867.4,16.8 890.0,33.9 911.2,51.7 931.1,70.1 949.5,89.0 966.6,108.4 982.2,128.2 996.3,148.6 1008.9,169.3 1019.8,190.4 1028.9,211.9 1036.0,233.6 1041.2,255.6 1044.3,277.8 1045.2,300.0" fill="none" stroke="#86855F" stroke-width="1" stroke-opacity="0.07"/><polyline points="1077.2,300.0 1078.4,323.3 1077.6,346.8 1074.7,370.2 1069.6,393.5 1062.3,416.7 1052.9,439.6 1041.2,462.1 1027.5,484.3 1011.8,505.9 994.2,527.0 974.8,547.5 953.7,567.4 931.0,586.7 906.7,605.2 881.0,623.0 853.8,640.0 825.3,656.2 795.4,671.6 764.3,686.0 731.8,699.3 698.2,711.5 663.4,722.5 627.6,732.2 590.8,740.4 553.3,747.2 515.1,752.5 476.5,756.1 437.7,758.2 398.8,758.7 360.0,757.8 321.5,755.3 283.5,751.5 245.9,746.5 209.1,740.2 172.9,733.0 137.4,724.8 102.6,715.7 68.5,705.9 35.1,695.3 2.4,684.0 -29.7,672.0 -61.1,659.3 -91.7,645.8 -121.5,631.5 -150.3,616.4 -178.0,600.3 -204.5,583.4 -229.5,565.5 -252.8,546.7 -274.4,527.1 -293.9,506.6 -311.3,485.3 -326.5,463.4 -339.3,440.9 -349.8,417.9 -357.9,394.6 -363.8,371.1 -367.5,347.4 -369.0,323.7 -368.5,300.0 -366.1,276.4 -361.9,253.0 -356.1,229.7 -348.5,206.6 -339.4,183.8 -328.6,161.3 -316.3,139.1 -302.3,117.2 -286.6,95.7 -269.3,74.7 -250.2,54.3 -229.3,34.5 -206.7,15.5 -182.4,-2.8 -156.4,-20.2 -128.8,-36.6 -99.8,-52.0 -69.3,-66.3 -37.6,-79.6 -4.8,-91.8 28.9,-102.9 63.5,-112.9 98.8,-121.8 134.8,-129.8 171.3,-136.7 208.2,-142.7 245.7,-147.6 283.4,-151.6 321.6,-154.5 360.0,-156.3 398.6,-157.0 437.4,-156.5 476.1,-154.6 514.7,-151.4 553.0,-146.7 590.8,-140.5 627.9,-132.8 664.1,-123.5 699.2,-112.7 732.9,-100.4 765.1,-86.8 795.8,-71.9 824.7,-55.8 851.8,-38.6 877.1,-20.6 900.6,-1.8 922.5,17.6 942.7,37.5 961.3,57.9 978.5,78.6 994.3,99.6 1008.9,120.9 1022.2,142.4 1034.2,164.2 1045.0,186.2 1054.5,208.5 1062.6,231.0 1069.1,253.8 1074.0,276.8 1077.2,300.0" fill="none" stroke="#86855F" stroke-width="1" stroke-opacity="0.16"/><polyline points="910.6,540.0 910.3,541.0 910.1,542.0 909.8,542.9 909.6,543.9 909.2,544.9 908.7,545.8 908.0,546.7 907.1,547.5 905.9,548.2 904.5,548.8 903.0,549.2 901.3,549.6 899.5,549.8 897.8,549.9 896.1,550.0 894.5,550.0 893.1,550.1 892.0,550.2 891.0,550.5 890.3,551.0 889.7,551.8 889.2,552.8 888.7,554.1 888.2,555.6 887.5,557.4 886.6,559.3 885.5,561.4 884.0,563.4 882.1,565.4 880.0,567.2 877.6,568.7 874.9,569.9 872.2,570.7 869.3,571.1 866.6,571.0 864.0,570.5 861.7,569.6 859.7,568.3 858.0,566.7 856.8,564.9 855.9,563.0 855.4,561.0 855.2,559.0 855.2,557.1 855.4,555.3 855.7,553.6 855.9,552.1 856.1,550.8 856.2,549.6 856.2,548.5 856.1,547.5 855.9,546.6 855.6,545.8 855.4,545.0 855.1,544.1 854.9,543.3 854.9,542.5 855.0,541.6 855.2,540.8 855.6,540.0 856.2,539.2 856.8,538.5 857.4,537.8 858.0,537.1 858.4,536.4 858.8,535.7 858.9,535.0 858.8,534.2 858.6,533.2 858.1,532.2 857.5,530.9 856.8,529.5 856.1,528.0 855.5,526.3 855.1,524.6 855.0,522.8 855.2,521.0 855.8,519.3 856.7,517.8 858.1,516.5 859.9,515.5 861.9,514.8 864.2,514.5 866.6,514.5 869.1,514.9 871.6,515.5 874.0,516.4 876.2,517.5 878.2,518.7 880.0,519.9 881.6,521.1 883.0,522.1 884.4,522.9 885.6,523.5 886.9,523.9 888.3,524.1 889.9,524.1 891.6,523.9 893.5,523.6 895.6,523.3 897.8,523.0 900.2,522.8 902.6,522.7 905.0,522.8 907.2,523.1 909.2,523.7 911.0,524.4 912.4,525.4 913.5,526.5 914.2,527.8 914.5,529.1 914.5,530.5 914.3,531.8 913.8,533.2 913.3,534.5 912.6,535.7 912.0,536.9 911.4,538.0 911.0,539.0 910.6,540.0" fill="none" stroke="#86855F" stroke-width="1" stroke-opacity="0.16"/><polyline points="932.9,540.0 932.4,541.7 932.3,543.4 932.6,545.2 933.3,547.0 934.1,549.0 935.0,551.1 935.8,553.3 936.5,555.6 937.0,558.0 937.1,560.4 936.8,562.9 936.0,565.2 934.9,567.5 933.2,569.7 931.2,571.8 928.9,573.7 926.2,575.4 923.3,577.0 920.3,578.5 917.1,579.8 913.8,581.1 910.4,582.3 906.9,583.5 903.4,584.7 899.8,585.8 896.0,586.8 892.2,587.7 888.2,588.5 884.2,589.2 880.0,589.6 875.8,589.8 871.6,589.7 867.4,589.2 863.4,588.4 859.6,587.3 856.0,585.9 852.7,584.2 849.7,582.2 847.0,580.1 844.7,577.9 842.6,575.7 840.8,573.5 839.0,571.4 837.4,569.3 835.7,567.5 833.9,565.7 831.9,564.2 829.6,562.7 827.2,561.3 824.4,559.9 821.5,558.5 818.5,557.0 815.4,555.4 812.4,553.6 809.5,551.7 807.1,549.6 805.0,547.4 803.5,545.0 802.7,542.5 802.5,540.0 802.9,537.5 804.0,535.0 805.7,532.7 807.9,530.5 810.4,528.4 813.3,526.6 816.3,524.8 819.4,523.3 822.4,521.8 825.3,520.4 828.0,519.1 830.5,517.7 832.8,516.3 834.9,514.8 836.9,513.3 838.9,511.7 840.8,510.0 842.8,508.3 844.9,506.5 847.2,504.8 849.7,503.2 852.5,501.7 855.4,500.3 858.6,499.1 861.9,498.1 865.3,497.3 868.9,496.6 872.6,496.1 876.3,495.8 880.0,495.6 883.8,495.4 887.6,495.3 891.4,495.2 895.4,495.1 899.4,495.0 903.6,495.0 907.9,495.0 912.3,495.1 916.7,495.3 921.2,495.8 925.6,496.5 929.9,497.4 933.9,498.7 937.6,500.3 940.8,502.3 943.5,504.5 945.6,507.1 947.0,509.8 947.7,512.7 947.7,515.8 947.1,518.8 946.0,521.8 944.4,524.7 942.6,527.4 940.6,529.9 938.6,532.3 936.7,534.4 935.0,536.4 933.7,538.3 932.9,540.0" fill="none" stroke="#86855F" stroke-width="1" stroke-opacity="0.07"/><polyline points="980.6,540.0 981.3,543.3 982.0,546.6 982.7,550.1 983.2,553.6 983.5,557.2 983.6,560.9 983.2,564.6 982.3,568.2 980.8,571.8 978.7,575.3 976.0,578.6 972.6,581.7 968.6,584.5 964.1,587.0 959.2,589.1 953.9,590.9 948.4,592.4 942.8,593.6 937.1,594.5 931.5,595.3 926.1,596.1 920.7,596.7 915.6,597.4 910.5,598.2 905.6,599.1 900.6,600.2 895.7,601.3 890.6,602.6 885.4,603.9 880.0,605.2 874.4,606.5 868.5,607.6 862.5,608.4 856.3,609.0 850.1,609.2 843.8,609.1 837.6,608.5 831.5,607.5 825.7,606.1 820.1,604.3 814.9,602.1 810.1,599.7 805.6,597.0 801.5,594.1 797.7,591.0 794.3,587.9 791.1,584.6 788.1,581.4 785.4,578.1 782.9,574.8 780.5,571.4 778.4,568.0 776.6,564.6 775.0,561.2 773.8,557.6 773.0,554.1 772.7,550.5 772.8,547.0 773.5,543.5 774.8,540.0 776.5,536.6 778.6,533.4 781.2,530.3 784.0,527.4 787.1,524.6 790.2,521.9 793.3,519.4 796.2,516.9 799.0,514.4 801.6,511.9 803.9,509.4 806.0,506.7 807.9,503.8 809.7,500.8 811.5,497.5 813.4,494.1 815.5,490.6 817.9,487.0 820.7,483.4 824.0,479.8 827.8,476.4 832.1,473.3 837.0,470.5 842.4,468.2 848.1,466.3 854.2,464.9 860.6,464.0 867.1,463.7 873.6,463.8 880.0,464.4 886.3,465.4 892.4,466.7 898.3,468.2 904.0,469.9 909.5,471.8 914.7,473.7 919.8,475.7 924.8,477.6 929.6,479.6 934.4,481.6 939.0,483.7 943.5,485.8 948.0,488.0 952.2,490.3 956.2,492.7 960.0,495.3 963.4,498.1 966.5,501.0 969.2,504.1 971.5,507.3 973.4,510.5 974.9,513.8 976.1,517.1 977.0,520.5 977.7,523.8 978.3,527.0 978.8,530.3 979.4,533.5 979.9,536.8 980.6,540.0" fill="none" stroke="#86855F" stroke-width="1" stroke-opacity="0.07"/><polyline points="1020.3,540.0 1018.2,544.5 1016.0,548.9 1013.9,553.1 1011.8,557.4 1009.6,561.5 1007.5,565.7 1005.3,569.8 1002.9,573.9 1000.4,578.0 997.6,582.1 994.4,586.1 990.9,590.0 987.1,593.8 982.8,597.4 978.1,600.9 973.1,604.1 967.8,607.2 962.2,610.2 956.4,612.9 950.3,615.5 944.1,618.1 937.8,620.5 931.3,622.8 924.6,625.1 917.8,627.4 910.7,629.6 903.4,631.7 895.9,633.6 888.1,635.4 880.0,636.9 871.7,638.1 863.2,639.0 854.6,639.3 846.0,639.1 837.5,638.3 829.2,637.0 821.1,635.1 813.6,632.5 806.5,629.5 800.0,625.9 794.1,622.0 788.9,617.7 784.3,613.3 780.3,608.6 776.8,604.0 773.7,599.3 770.9,594.8 768.4,590.3 765.9,586.0 763.4,581.7 760.9,577.6 758.3,573.6 755.6,569.6 752.8,565.6 750.0,561.6 747.3,557.5 744.7,553.3 742.4,549.0 740.5,544.5 739.0,540.0 738.0,535.4 737.6,530.7 737.9,526.0 738.8,521.4 740.3,516.8 742.3,512.3 744.9,507.9 748.0,503.6 751.4,499.4 755.1,495.3 759.1,491.3 763.3,487.5 767.8,483.6 772.4,479.9 777.2,476.2 782.2,472.6 787.4,469.1 793.0,465.7 798.8,462.5 805.0,459.5 811.6,456.8 818.5,454.3 825.7,452.3 833.1,450.6 840.8,449.3 848.6,448.5 856.5,448.2 864.4,448.2 872.3,448.6 880.0,449.4 887.6,450.4 895.0,451.6 902.3,452.9 909.4,454.3 916.4,455.7 923.4,457.1 930.4,458.5 937.5,459.9 944.7,461.3 951.9,462.8 959.3,464.3 966.7,466.0 974.1,467.9 981.5,470.1 988.7,472.6 995.5,475.5 1001.9,478.8 1007.8,482.4 1013.0,486.5 1017.4,490.8 1020.9,495.5 1023.7,500.3 1025.5,505.4 1026.5,510.5 1026.8,515.6 1026.4,520.7 1025.4,525.7 1024.0,530.6 1022.2,535.4 1020.3,540.0" fill="none" stroke="#86855F" stroke-width="1" stroke-opacity="0.07"/><polyline points="1046.6,540.0 1045.7,545.4 1044.8,550.7 1044.1,556.1 1043.4,561.5 1042.8,567.0 1042.1,572.7 1041.3,578.4 1040.2,584.2 1038.7,590.1 1036.7,596.1 1034.0,602.0 1030.6,607.8 1026.4,613.5 1021.3,618.9 1015.5,624.0 1008.8,628.7 1001.5,633.0 993.5,636.9 985.0,640.2 976.0,643.1 966.7,645.6 957.3,647.6 947.6,649.3 938.0,650.6 928.3,651.7 918.6,652.5 908.9,653.2 899.3,653.7 889.6,654.0 880.0,654.1 870.4,654.1 860.7,653.8 851.0,653.3 841.4,652.6 831.8,651.4 822.4,649.9 813.1,648.1 804.0,645.8 795.3,643.1 786.8,640.0 778.8,636.6 771.2,632.9 764.0,628.8 757.2,624.6 750.8,620.1 744.7,615.5 739.0,610.8 733.5,606.0 728.2,601.1 723.1,596.2 718.2,591.1 713.4,586.0 708.9,580.7 704.6,575.3 700.7,569.8 697.2,564.1 694.3,558.2 692.1,552.2 690.6,546.2 689.9,540.0 690.2,533.8 691.4,527.7 693.6,521.7 696.7,515.8 700.6,510.2 705.2,504.8 710.5,499.7 716.3,494.8 722.5,490.2 728.9,485.9 735.4,481.8 741.9,477.8 748.4,473.9 754.8,470.1 761.2,466.3 767.4,462.5 773.6,458.6 779.9,454.6 786.3,450.6 793.0,446.6 799.9,442.6 807.3,438.7 815.0,435.0 823.2,431.6 831.8,428.4 840.8,425.7 850.2,423.5 859.9,421.7 869.9,420.5 880.0,419.8 890.2,419.6 900.4,419.9 910.5,420.7 920.5,422.0 930.3,423.6 940.0,425.6 949.4,427.9 958.7,430.4 967.7,433.3 976.5,436.4 985.1,439.7 993.3,443.3 1001.3,447.1 1008.9,451.3 1016.0,455.7 1022.6,460.4 1028.6,465.4 1033.9,470.7 1038.5,476.2 1042.4,481.9 1045.4,487.7 1047.7,493.7 1049.2,499.7 1050.1,505.7 1050.3,511.7 1050.1,517.6 1049.5,523.4 1048.6,529.0 1047.7,534.6 1046.6,540.0" fill="none" stroke="#86855F" stroke-width="1" stroke-opacity="0.07"/><polyline points="1100.1,540.0 1099.1,547.1 1097.7,554.2 1095.8,561.2 1093.5,568.1 1090.8,575.0 1087.8,581.9 1084.3,588.6 1080.3,595.3 1075.9,601.9 1070.9,608.3 1065.2,614.6 1059.0,620.6 1052.1,626.4 1044.5,631.9 1036.4,636.9 1027.6,641.6 1018.3,645.9 1008.6,649.8 998.6,653.2 988.3,656.3 977.8,659.0 967.1,661.3 956.5,663.5 945.7,665.4 935.0,667.2 924.2,668.9 913.3,670.5 902.4,672.1 891.3,673.6 880.0,674.9 868.5,676.1 856.8,677.1 844.8,677.8 832.6,678.2 820.3,678.0 808.0,677.4 795.7,676.1 783.7,674.2 771.9,671.6 760.6,668.3 749.8,664.3 739.7,659.7 730.4,654.6 721.9,648.9 714.2,642.8 707.3,636.4 701.2,629.8 695.9,622.9 691.3,616.0 687.2,609.0 683.6,602.0 680.5,595.1 677.7,588.1 675.3,581.2 673.2,574.4 671.4,567.5 669.9,560.6 668.8,553.8 668.2,546.9 668.0,540.0 668.3,533.1 669.2,526.3 670.8,519.5 672.9,512.7 675.7,506.1 679.1,499.5 683.1,493.1 687.5,486.9 692.4,480.7 697.7,474.8 703.4,468.9 709.3,463.1 715.5,457.4 722.0,451.8 728.7,446.2 735.7,440.6 743.0,435.1 750.7,429.7 758.9,424.4 767.5,419.2 776.7,414.3 786.5,409.7 796.8,405.6 807.6,401.9 819.0,398.8 830.8,396.4 842.9,394.6 855.2,393.6 867.6,393.3 880.0,393.8 892.3,394.9 904.3,396.7 916.0,399.0 927.4,401.8 938.3,405.0 948.9,408.5 959.1,412.2 969.0,416.1 978.6,420.1 987.9,424.1 997.1,428.2 1006.2,432.3 1015.2,436.5 1024.0,440.8 1032.7,445.3 1041.2,450.0 1049.5,454.9 1057.4,460.1 1064.9,465.6 1071.8,471.3 1078.1,477.4 1083.7,483.8 1088.5,490.4 1092.6,497.2 1095.7,504.2 1098.1,511.3 1099.6,518.4 1100.4,525.6 1100.6,532.8 1100.1,540.0" fill="none" stroke="#86855F" stroke-width="1" stroke-opacity="0.16"/><polyline points="1131.9,540.0 1128.7,548.1 1125.1,556.0 1121.3,563.7 1117.3,571.3 1113.1,578.7 1108.9,586.1 1104.7,593.5 1100.3,600.8 1095.8,608.2 1091.0,615.5 1085.8,622.9 1080.2,630.2 1074.0,637.4 1067.3,644.5 1059.8,651.5 1051.6,658.1 1042.6,664.5 1032.9,670.5 1022.5,676.0 1011.4,681.1 999.7,685.7 987.6,689.8 975.0,693.4 962.0,696.5 948.8,699.2 935.3,701.4 921.7,703.1 907.9,704.5 894.0,705.5 880.0,706.1 866.0,706.2 851.9,705.9 837.8,705.2 823.8,703.9 809.9,702.2 796.2,699.8 782.9,696.9 769.9,693.3 757.4,689.2 745.5,684.5 734.2,679.2 723.7,673.4 713.9,667.2 704.9,660.6 696.7,653.6 689.2,646.5 682.4,639.2 676.2,631.8 670.4,624.4 665.0,616.9 660.0,609.5 655.1,602.1 650.4,594.6 645.9,587.2 641.5,579.6 637.3,572.0 633.4,564.2 629.9,556.3 626.8,548.2 624.3,540.0 622.5,531.6 621.7,523.2 621.8,514.6 622.9,506.1 625.2,497.7 628.6,489.3 633.0,481.2 638.6,473.4 645.1,465.8 652.5,458.6 660.7,451.7 669.5,445.2 678.9,439.0 688.6,433.2 698.8,427.6 709.2,422.4 719.8,417.3 730.6,412.5 741.7,407.9 752.9,403.5 764.4,399.4 776.2,395.5 788.3,391.8 800.6,388.5 813.3,385.6 826.2,383.1 839.4,381.0 852.8,379.5 866.4,378.6 880.0,378.1 893.7,378.3 907.3,379.0 920.8,380.2 934.2,381.9 947.4,384.0 960.4,386.5 973.3,389.4 985.9,392.6 998.3,396.0 1010.6,399.8 1022.6,403.8 1034.5,408.1 1046.2,412.8 1057.6,417.7 1068.6,423.1 1079.2,428.8 1089.3,434.9 1098.7,441.5 1107.3,448.5 1115.0,455.9 1121.7,463.7 1127.3,471.7 1131.7,480.1 1134.9,488.7 1136.9,497.3 1137.8,506.0 1137.6,514.7 1136.5,523.3 1134.5,531.7 1131.9,540.0" fill="none" stroke="#86855F" stroke-width="1" stroke-opacity="0.07"/><polyline points="1166.2,540.0 1165.2,549.3 1163.6,558.5 1161.6,567.7 1159.1,576.8 1156.2,585.9 1152.9,595.0 1149.2,604.1 1144.9,613.1 1140.1,622.2 1134.7,631.2 1128.6,640.1 1121.6,648.8 1113.8,657.4 1105.0,665.6 1095.3,673.5 1084.6,680.9 1072.9,687.7 1060.4,693.9 1047.1,699.5 1033.1,704.4 1018.5,708.6 1003.5,712.0 988.2,714.8 972.8,717.0 957.2,718.6 941.6,719.7 926.1,720.4 910.6,720.8 895.3,720.8 880.0,720.6 864.8,720.1 849.6,719.4 834.4,718.5 819.2,717.3 804.0,715.8 788.8,714.0 773.7,711.7 758.7,708.9 743.9,705.7 729.3,701.8 715.2,697.3 701.6,692.3 688.5,686.6 676.2,680.4 664.6,673.6 653.8,666.3 643.8,658.6 634.8,650.5 626.5,642.1 619.0,633.4 612.4,624.5 606.4,615.5 601.2,606.4 596.6,597.1 592.6,587.7 589.3,578.3 586.7,568.8 584.8,559.2 583.6,549.6 583.2,540.0 583.7,530.4 585.1,520.8 587.5,511.3 591.0,501.9 595.4,492.7 600.8,483.7 607.1,475.0 614.3,466.7 622.3,458.6 630.9,450.8 640.2,443.4 649.9,436.3 660.0,429.5 670.3,422.9 680.9,416.6 691.7,410.3 702.6,404.2 713.8,398.2 725.2,392.2 736.9,386.3 749.0,380.6 761.5,375.0 774.5,369.6 788.0,364.5 802.1,359.9 816.8,355.7 832.0,352.1 847.7,349.3 863.7,347.2 880.0,345.9 896.4,345.5 912.9,346.0 929.2,347.3 945.3,349.5 961.0,352.5 976.3,356.2 991.1,360.5 1005.4,365.4 1019.0,370.8 1032.2,376.6 1044.7,382.7 1056.7,389.2 1068.2,395.9 1079.3,402.8 1089.8,409.9 1099.8,417.3 1109.3,424.9 1118.3,432.7 1126.6,440.7 1134.3,449.0 1141.3,457.5 1147.5,466.2 1152.8,475.1 1157.3,484.1 1160.9,493.3 1163.6,502.6 1165.4,512.0 1166.4,521.3 1166.7,530.7 1166.2,540.0" fill="none" stroke="#86855F" stroke-width="1" stroke-opacity="0.07"/><polyline points="1219.2,540.0 1217.0,551.0 1213.8,561.8 1209.6,572.4 1204.5,582.8 1198.7,592.9 1192.3,602.9 1185.3,612.7 1177.8,622.2 1169.8,631.6 1161.4,640.7 1152.5,649.7 1143.0,658.5 1133.0,667.0 1122.5,675.4 1111.3,683.4 1099.4,691.1 1086.8,698.4 1073.6,705.2 1059.8,711.6 1045.3,717.5 1030.3,722.8 1014.7,727.6 998.8,731.9 982.5,735.6 965.9,738.7 949.1,741.4 932.0,743.7 914.8,745.4 897.5,746.8 880.0,747.8 862.4,748.3 844.7,748.5 826.8,748.1 808.9,747.3 791.0,745.9 773.1,744.0 755.4,741.3 737.9,737.9 720.7,733.8 704.1,728.9 688.1,723.2 672.9,716.7 658.7,709.5 645.5,701.5 633.4,692.9 622.4,683.8 612.7,674.2 604.1,664.3 596.6,654.1 590.2,643.7 584.7,633.3 580.0,622.8 576.0,612.3 572.6,601.9 569.6,591.6 567.1,581.2 565.0,570.9 563.2,560.6 561.7,550.3 560.7,540.0 560.2,529.6 560.3,519.2 561.0,508.7 562.6,498.2 565.0,487.7 568.4,477.2 572.8,466.9 578.2,456.7 584.7,446.7 592.3,437.0 600.8,427.6 610.3,418.5 620.6,409.8 631.7,401.4 643.5,393.4 656.0,385.8 669.1,378.5 682.7,371.6 696.8,365.1 711.4,358.9 726.5,353.2 742.0,347.8 758.0,343.0 774.4,338.6 791.3,334.8 808.6,331.6 826.1,329.2 844.0,327.4 862.0,326.5 880.0,326.3 898.0,327.0 915.9,328.5 933.5,330.7 950.7,333.7 967.6,337.4 983.9,341.7 999.8,346.5 1015.2,351.7 1030.1,357.3 1044.6,363.2 1058.7,369.4 1072.4,375.8 1085.9,382.4 1099.0,389.2 1111.9,396.2 1124.5,403.5 1136.8,411.1 1148.7,419.0 1160.1,427.2 1170.8,435.9 1180.9,445.0 1190.0,454.4 1198.1,464.3 1205.1,474.5 1210.8,485.0 1215.2,495.8 1218.2,506.8 1219.9,517.9 1220.2,528.9 1219.2,540.0" fill="none" stroke="#86855F" stroke-width="1" stroke-opacity="0.07"/><polyline points="1244.7,540.0 1241.8,551.8 1238.0,563.3 1233.5,574.7 1228.3,585.9 1222.6,596.9 1216.4,607.8 1209.8,618.5 1202.9,629.1 1195.6,639.7 1187.9,650.2 1179.7,660.7 1171.0,671.1 1161.6,681.4 1151.5,691.5 1140.5,701.5 1128.6,711.2 1115.7,720.4 1101.8,729.2 1086.8,737.5 1070.9,745.0 1054.1,751.8 1036.4,757.8 1018.0,763.0 999.1,767.2 979.7,770.6 959.9,773.2 940.0,774.9 920.0,775.8 900.0,776.0 880.0,775.6 860.2,774.5 840.5,772.9 821.1,770.7 801.8,768.0 782.8,764.9 764.1,761.2 745.6,757.0 727.5,752.3 709.9,747.0 692.6,741.2 676.0,734.8 659.9,727.8 644.6,720.2 630.1,712.1 616.4,703.5 603.6,694.3 591.8,684.7 580.8,674.8 570.9,664.5 561.8,653.9 553.6,643.1 546.1,632.2 539.4,621.1 533.4,609.8 528.0,598.5 523.2,587.0 519.1,575.4 515.6,563.7 512.8,551.9 510.8,540.0 509.6,528.0 509.5,515.9 510.4,503.7 512.6,491.6 516.0,479.5 520.7,467.6 526.9,456.0 534.4,444.6 543.3,433.6 553.4,423.1 564.8,413.1 577.2,403.6 590.5,394.7 604.6,386.3 619.4,378.4 634.7,371.1 650.4,364.2 666.5,357.8 682.8,351.7 699.3,345.9 716.0,340.5 733.0,335.3 750.2,330.4 767.7,325.8 785.6,321.5 803.8,317.6 822.3,314.2 841.2,311.3 860.5,309.0 880.0,307.4 899.7,306.5 919.6,306.4 939.5,307.1 959.3,308.7 978.9,311.2 998.2,314.4 1017.1,318.5 1035.6,323.3 1053.5,328.8 1070.9,335.0 1087.7,341.8 1103.8,349.0 1119.3,356.8 1134.1,365.0 1148.3,373.7 1161.8,382.7 1174.5,392.1 1186.5,402.0 1197.6,412.1 1207.7,422.7 1216.9,433.6 1225.0,444.8 1231.9,456.2 1237.6,468.0 1242.0,479.9 1245.0,491.9 1246.8,504.0 1247.3,516.1 1246.5,528.1 1244.7,540.0" fill="none" stroke="#86855F" stroke-width="1" stroke-opacity="0.07"/><polyline points="1287.7,540.0 1287.2,553.2 1285.4,566.4 1282.4,579.5 1278.2,592.5 1273.0,605.3 1266.7,617.9 1259.5,630.3 1251.4,642.5 1242.5,654.5 1232.7,666.2 1222.1,677.7 1210.6,688.9 1198.4,699.8 1185.2,710.4 1171.2,720.5 1156.2,730.2 1140.3,739.3 1123.5,747.8 1105.9,755.6 1087.4,762.7 1068.3,769.1 1048.4,774.6 1028.1,779.2 1007.4,783.1 986.4,786.1 965.1,788.3 943.8,789.9 922.5,790.7 901.2,791.0 880.0,790.7 858.9,790.0 837.8,788.8 816.9,787.2 795.9,785.2 775.1,782.8 754.3,779.9 733.6,776.5 712.9,772.6 692.5,768.1 672.4,763.0 652.6,757.1 633.4,750.4 614.9,743.0 597.2,734.8 580.4,725.7 564.8,715.9 550.5,705.5 537.4,694.3 525.7,682.6 515.5,670.5 506.6,658.0 499.1,645.2 492.8,632.1 487.8,619.0 483.9,605.8 481.0,592.6 479.0,579.4 478.0,566.2 477.7,553.1 478.3,540.0 479.7,527.0 481.8,514.1 484.8,501.2 488.7,488.4 493.5,475.8 499.3,463.3 506.1,451.0 514.0,439.0 522.9,427.2 532.9,415.8 543.9,404.7 555.8,394.0 568.7,383.7 582.3,373.8 596.8,364.4 611.9,355.4 627.6,346.7 643.9,338.5 660.7,330.7 678.1,323.2 696.0,316.1 714.3,309.3 733.3,303.0 752.7,297.1 772.7,291.8 793.3,287.1 814.3,283.0 835.9,279.7 857.8,277.3 880.0,275.7 902.4,275.2 924.8,275.8 947.1,277.4 969.1,280.1 990.7,283.9 1011.7,288.6 1032.1,294.4 1051.7,300.9 1070.4,308.3 1088.4,316.3 1105.4,324.8 1121.6,333.8 1137.0,343.2 1151.7,352.9 1165.7,362.9 1179.1,373.1 1191.8,383.4 1204.0,394.0 1215.7,404.8 1226.8,415.9 1237.2,427.2 1246.9,438.7 1255.8,450.6 1263.8,462.7 1270.7,475.1 1276.6,487.7 1281.3,500.6 1284.7,513.6 1286.9,526.8 1287.7,540.0" fill="none" stroke="#86855F" stroke-width="1" stroke-opacity="0.16"/><polyline points="1333.9,540.0 1331.6,554.7 1327.6,569.2 1322.2,583.4 1315.5,597.4 1307.5,611.0 1298.5,624.3 1288.5,637.2 1277.8,649.8 1266.4,662.1 1254.4,674.0 1241.9,685.7 1228.9,697.2 1215.3,708.4 1201.2,719.3 1186.5,730.1 1171.2,740.5 1155.1,750.6 1138.2,760.3 1120.5,769.6 1101.9,778.3 1082.5,786.4 1062.3,793.9 1041.3,800.5 1019.6,806.3 997.3,811.3 974.4,815.4 951.2,818.6 927.6,820.9 903.9,822.3 880.0,822.9 856.1,822.6 832.3,821.5 808.5,819.7 785.0,817.2 761.6,813.9 738.5,809.9 715.8,805.2 693.5,799.8 671.6,793.6 650.3,786.7 629.7,778.9 609.9,770.5 591.1,761.2 573.2,751.2 556.5,740.5 541.1,729.2 527.0,717.2 514.2,704.8 502.8,691.9 492.8,678.6 484.0,665.1 476.5,651.4 470.2,637.5 464.8,623.6 460.4,609.7 456.8,595.8 453.9,581.8 451.7,567.9 450.1,554.0 449.1,540.0 448.7,526.0 449.0,511.9 450.2,497.8 452.2,483.6 455.2,469.4 459.3,455.3 464.7,441.2 471.5,427.2 479.7,413.5 489.3,400.1 500.4,387.2 513.0,374.7 527.0,362.8 542.3,351.5 558.8,340.9 576.4,330.9 594.9,321.7 614.2,313.2 634.3,305.4 654.9,298.2 676.0,291.7 697.5,285.9 719.4,280.6 741.6,275.9 764.1,271.8 786.9,268.4 809.9,265.5 833.1,263.3 856.5,261.8 880.0,261.1 903.6,261.1 927.1,262.0 950.6,263.7 973.8,266.4 996.8,269.8 1019.3,274.2 1041.4,279.4 1062.9,285.3 1083.8,292.0 1104.0,299.4 1123.6,307.4 1142.5,316.0 1160.7,325.1 1178.2,334.6 1195.1,344.6 1211.4,355.0 1227.0,365.8 1241.9,377.0 1256.0,388.6 1269.4,400.6 1281.8,413.1 1293.3,425.9 1303.5,439.2 1312.6,452.9 1320.2,466.9 1326.2,481.2 1330.7,495.7 1333.5,510.4 1334.5,525.2 1333.9,540.0" fill="none" stroke="#86855F" stroke-width="1" stroke-opacity="0.07"/><polyline points="1357.1,540.0 1355.7,555.5 1352.9,570.8 1348.9,586.0 1343.6,601.1 1337.1,615.9 1329.5,630.6 1320.9,644.9 1311.4,659.1 1301.0,673.0 1289.8,686.7 1277.8,700.2 1264.9,713.4 1251.2,726.4 1236.6,739.1 1221.0,751.4 1204.5,763.4 1186.9,775.0 1168.2,786.0 1148.4,796.3 1127.6,805.9 1105.7,814.6 1082.8,822.4 1059.0,829.2 1034.5,834.8 1009.4,839.4 983.8,842.8 957.9,845.1 931.9,846.3 905.9,846.4 880.0,845.5 854.3,843.8 828.9,841.2 803.9,837.9 779.3,833.9 755.0,829.3 731.1,824.1 707.6,818.4 684.5,812.2 661.8,805.5 639.5,798.3 617.7,790.4 596.4,782.0 575.7,773.0 555.7,763.3 536.6,752.9 518.3,741.9 501.2,730.2 485.2,717.8 470.4,704.9 457.0,691.4 445.0,677.4 434.4,663.0 425.2,648.3 417.3,633.2 410.8,617.9 405.6,602.5 401.7,587.0 398.9,571.4 397.3,555.7 396.8,540.0 397.5,524.3 399.3,508.7 402.3,493.1 406.5,477.6 411.9,462.2 418.6,447.1 426.7,432.1 436.2,417.5 447.1,403.2 459.4,389.4 473.0,376.1 488.0,363.4 504.2,351.3 521.6,339.9 540.0,329.2 559.2,319.1 579.2,309.7 599.9,301.0 621.1,292.8 642.8,285.3 664.9,278.2 687.3,271.7 710.1,265.6 733.2,259.9 756.7,254.7 780.6,250.0 804.8,245.8 829.5,242.2 854.6,239.2 880.0,237.0 905.7,235.6 931.7,235.1 957.7,235.7 983.8,237.3 1009.6,240.0 1035.2,243.9 1060.2,248.9 1084.6,255.1 1108.2,262.3 1130.9,270.5 1152.6,279.7 1173.3,289.7 1192.8,300.5 1211.2,311.9 1228.5,323.9 1244.7,336.4 1259.8,349.3 1273.9,362.6 1286.9,376.2 1299.0,390.0 1310.0,404.2 1320.0,418.5 1329.0,433.1 1336.8,448.0 1343.4,463.0 1348.8,478.2 1352.9,493.6 1355.7,509.0 1357.1,524.5 1357.1,540.0" fill="none" stroke="#86855F" stroke-width="1" stroke-opacity="0.07"/><polyline points="1406.3,540.0 1406.6,557.1 1404.9,574.2 1401.5,591.2 1396.2,608.0 1389.2,624.6 1380.5,640.8 1370.2,656.7 1358.5,672.1 1345.5,687.1 1331.3,701.6 1316.1,715.6 1299.8,729.1 1282.7,742.2 1264.7,754.7 1245.8,766.8 1226.2,778.4 1205.8,789.5 1184.6,800.0 1162.6,809.8 1139.9,819.1 1116.3,827.5 1092.0,835.3 1067.1,842.1 1041.5,848.1 1015.3,853.2 988.8,857.3 961.8,860.4 934.7,862.6 907.4,863.8 880.0,864.1 852.7,863.5 825.4,862.1 798.3,859.9 771.3,857.0 744.6,853.3 718.1,848.9 691.9,843.8 666.0,838.0 640.5,831.5 615.3,824.2 590.8,816.1 566.8,807.3 543.6,797.5 521.4,786.9 500.2,775.5 480.3,763.1 461.8,750.0 444.8,736.0 429.5,721.4 415.9,706.1 404.1,690.3 394.2,674.1 386.0,657.6 379.5,640.8 374.7,623.9 371.4,607.0 369.4,590.1 368.7,573.3 369.2,556.6 370.7,540.0 373.0,523.5 376.3,507.2 380.4,490.9 385.3,474.8 391.1,458.8 397.8,442.9 405.6,427.1 414.4,411.5 424.3,396.1 435.5,380.9 448.0,366.1 461.9,351.7 477.1,337.7 493.6,324.3 511.4,311.5 530.5,299.3 550.7,287.9 572.0,277.1 594.2,267.2 617.4,258.0 641.3,249.5 665.9,241.8 691.1,234.9 716.9,228.7 743.1,223.3 769.9,218.7 797.0,214.9 824.4,212.0 852.1,209.9 880.0,208.8 908.0,208.6 936.0,209.6 963.9,211.5 991.5,214.6 1018.8,218.9 1045.5,224.2 1071.5,230.6 1096.8,238.1 1121.1,246.6 1144.5,256.0 1166.8,266.2 1188.1,277.1 1208.2,288.7 1227.4,300.8 1245.5,313.4 1262.7,326.3 1279.0,339.7 1294.5,353.3 1309.2,367.2 1323.2,381.4 1336.4,395.8 1348.7,410.6 1360.2,425.7 1370.7,441.1 1380.1,456.9 1388.4,473.0 1395.2,489.4 1400.6,506.1 1404.3,523.0 1406.3,540.0" fill="none" stroke="#86855F" stroke-width="1" stroke-opacity="0.07"/><polyline points="1442.4,540.0 1440.7,558.2 1437.1,576.3 1431.7,594.2 1424.6,611.8 1415.8,629.0 1405.6,645.9 1394.0,662.3 1381.1,678.3 1367.1,693.9 1352.1,709.0 1336.3,723.7 1319.6,738.0 1302.2,752.0 1284.1,765.6 1265.2,778.8 1245.6,791.7 1225.1,804.2 1203.8,816.3 1181.6,828.0 1158.4,839.0 1134.3,849.4 1109.1,859.0 1083.0,867.8 1055.9,875.6 1027.9,882.3 999.3,887.9 970.0,892.2 940.2,895.3 910.2,897.1 880.0,897.6 849.8,896.8 819.8,894.9 790.1,891.8 760.8,887.6 732.0,882.4 703.8,876.3 676.1,869.3 649.2,861.4 622.9,852.8 597.4,843.5 572.6,833.5 548.7,822.7 525.6,811.3 503.5,799.2 482.5,786.4 462.6,773.0 443.9,758.9 426.6,744.3 410.6,729.0 396.1,713.2 383.1,697.0 371.7,680.3 361.7,663.3 353.3,646.1 346.4,628.6 340.9,611.1 336.6,593.4 333.7,575.6 331.9,557.8 331.3,540.0 331.8,522.2 333.4,504.4 336.1,486.6 339.9,468.8 344.9,451.1 351.2,433.5 358.9,416.0 368.0,398.7 378.7,381.6 391.0,365.0 405.0,348.7 420.6,333.1 438.0,318.1 456.9,303.8 477.4,290.4 499.3,277.9 522.5,266.3 546.8,255.7 572.1,246.1 598.2,237.4 625.0,229.7 652.3,222.9 680.0,216.9 708.0,211.7 736.2,207.3 764.7,203.6 793.3,200.5 822.0,198.2 851.0,196.5 880.0,195.5 909.1,195.2 938.4,195.8 967.6,197.2 996.7,199.5 1025.7,202.8 1054.5,207.1 1082.8,212.4 1110.7,218.8 1137.8,226.3 1164.2,234.8 1189.7,244.3 1214.2,254.8 1237.7,266.1 1260.0,278.3 1281.1,291.3 1301.1,304.9 1319.8,319.2 1337.3,334.0 1353.6,349.3 1368.7,365.1 1382.6,381.2 1395.1,397.8 1406.4,414.7 1416.3,432.0 1424.7,449.5 1431.6,467.3 1436.9,485.3 1440.5,503.5 1442.4,521.7 1442.4,540.0" fill="none" stroke="#86855F" stroke-width="1" stroke-opacity="0.07"/><polyline points="1468.6,540.0 1468.9,559.1 1467.6,578.3 1464.5,597.4 1459.7,616.4 1453.1,635.2 1444.8,653.8 1434.8,672.0 1423.2,689.9 1409.9,707.4 1395.3,724.4 1379.2,741.0 1361.8,757.0 1343.2,772.5 1323.4,787.5 1302.4,801.9 1280.4,815.7 1257.3,828.9 1233.2,841.4 1208.0,853.2 1181.8,864.1 1154.7,874.2 1126.6,883.4 1097.6,891.5 1067.9,898.5 1037.5,904.4 1006.5,909.0 975.1,912.4 943.5,914.5 911.7,915.4 880.0,915.0 848.4,913.4 817.1,910.8 786.2,907.0 755.8,902.3 725.8,896.8 696.4,890.4 667.5,883.3 639.1,875.5 611.3,867.0 584.0,857.9 557.2,848.2 531.1,837.8 505.6,826.7 480.8,814.9 456.8,802.4 433.8,789.1 411.9,775.0 391.3,760.1 372.1,744.5 354.5,728.1 338.6,711.0 324.6,693.3 312.5,675.1 302.4,656.4 294.2,637.3 288.1,618.0 283.9,598.5 281.5,579.0 281.0,559.5 282.1,540.0 284.7,520.7 288.9,501.5 294.4,482.5 301.2,463.7 309.3,445.2 318.7,426.9 329.3,408.9 341.2,391.3 354.3,373.9 368.8,357.0 384.6,340.5 401.8,324.6 420.3,309.2 440.2,294.5 461.3,280.4 483.7,267.1 507.2,254.6 531.8,242.9 557.4,232.0 583.9,222.0 611.1,212.9 639.1,204.5 667.6,197.0 696.7,190.2 726.2,184.2 756.2,179.0 786.6,174.5 817.4,170.9 848.6,168.1 880.0,166.1 911.7,165.2 943.5,165.2 975.5,166.3 1007.4,168.5 1039.0,172.0 1070.4,176.7 1101.2,182.8 1131.3,190.1 1160.4,198.8 1188.6,208.7 1215.4,219.7 1241.0,231.9 1265.1,245.2 1287.7,259.3 1308.8,274.2 1328.3,289.7 1346.4,305.8 1363.1,322.4 1378.4,339.3 1392.5,356.6 1405.3,374.1 1417.0,391.8 1427.6,409.7 1437.1,427.8 1445.5,446.1 1452.7,464.5 1458.7,483.2 1463.4,502.0 1466.8,520.9 1468.6,540.0" fill="none" stroke="#86855F" stroke-width="1" stroke-opacity="0.16"/></svg>