<svg xmlns="http://www.w3.org/2000/svg" width="900" height="520" viewBox="0 0 900 520" font-family="'JetBrains Mono','Spline Sans Mono',ui-monospace,monospace"><rect x="6" y="6" width="888" height="508" fill="none" stroke="#86855F" stroke-opacity="0.4"/><line x1="40" y1="6" x2="40" y2="514" stroke="#86855F" stroke-opacity="0.06"/><line x1="80" y1="6" x2="80" y2="514" stroke="#86855F" stroke-opacity="0.06"/><line x1="120" y1="6" x2="120" y2="514" stroke="#86855F" stroke-opacity="0.06"/><line x1="160" y1="6" x2="160" y2="514" stroke="#86855F" stroke-opacity="0.06"/><line x1="200" y1="6" x2="200" y2="514" stroke="#86855F" stroke-opacity="0.06"/><line x1="240" y1="6" x2="240" y2="514" stroke="#86855F" stroke-opacity="0.06"/><line x1="280" y1="6" x2="280" y2="514" stroke="#86855F" stroke-opacity="0.06"/><line x1="320" y1="6" x2="320" y2="514" stroke="#86855F" stroke-opacity="0.06"/><line x1="360" y1="6" x2="360" y2="514" stroke="#86855F" stroke-opacity="0.06"/><line x1="400" y1="6" x2="400" y2="514" stroke="#86855F" stroke-opacity="0.06"/><line x1="440" y1="6" x2="440" y2="514" stroke="#86855F" stroke-opacity="0.06"/><line x1="480" y1="6" x2="480" y2="514" stroke="#86855F" stroke-opacity="0.06"/><line x1="520" y1="6" x2="520" y2="514" stroke="#86855F" stroke-opacity="0.06"/><line x1="560" y1="6" x2="560" y2="514" stroke="#86855F" stroke-opacity="0.06"/><line x1="600" y1="6" x2="600" y2="514" stroke="#86855F" stroke-opacity="0.06"/><line x1="640" y1="6" x2="640" y2="514" stroke="#86855F" stroke-opacity="0.06"/><line x1="680" y1="6" x2="680" y2="514" stroke="#86855F" stroke-opacity="0.06"/><line x1="720" y1="6" x2="720" y2="514" stroke="#86855F" stroke-opacity="0.06"/><line x1="760" y1="6" x2="760" y2="514" stroke="#86855F" stroke-opacity="0.06"/><line x1="800" y1="6" x2="800" y2="514" stroke="#86855F" stroke-opacity="0.06"/><line x1="840" y1="6" x2="840" y2="514" stroke="#86855F" stroke-opacity="0.06"/><line x1="880" y1="6" x2="880" y2="514" stroke="#86855F" stroke-opacity="0.06"/><line x1="6" y1="40" x2="894" y2="40" stroke="#86855F" stroke-opacity="0.06"/><line x1="6" y1="80" x2="894" y2="80" stroke="#86855F" stroke-opacity="0.06"/><line x1="6" y1="120" x2="894" y2="120" stroke="#86855F" stroke-opacity="0.06"/><line x1="6" y1="160" x2="894" y2="160" stroke="#86855F" stroke-opacity="0.06"/><line x1="6" y1="200" x2="894" y2="200" stroke="#86855F" stroke-opacity="0.06"/><line x1="6" y1="240" x2="894" y2="240" stroke="#86855F" stroke-opacity="0.06"/><line x1="6" y1="280" x2="894" y2="280" stroke="#86855F" stroke-opacity="0.06"/><line x1="6" y1="320" x2="894" y2="320" stroke="#86855F" stroke-opacity="0.06"/><line x1="6" y1="360" x2="894" y2="360" stroke="#86855F" stroke-opacity="0.06"/><line x1="6" y1="400" x2="894" y2="400" stroke="#86855F" stroke-opacity="0.06"/><line x1="6" y1="440" x2="894" y2="440" stroke="#86855F" stroke-opacity="0.06"/><line x1="6" y1="480" x2="894" y2="480" stroke="#86855F" stroke-opacity="0.06"/><polyline points="193,360 192,364 189,367 185,370 179,372 173,373 168,373 164,372 160,372 157,372 155,373 153,375 150,376 147,378 142,380 138,381 133,381 129,379 125,377 122,375 121,372 120,369 120,366 121,363 121,360 121,357 121,355 121,352 122,349 123,346 126,343 129,341 133,339 138,339 142,340 146,341 150,343 153,345 155,346 157,347 160,348 163,348 167,348 173,348 178,349 184,350 188,353 192,356 193,360" fill="none" stroke="#86855F" stroke-opacity="0.12"/><polyline points="214,360 211,366 206,371 201,375 195,378 190,382 185,385 180,388 175,391 170,394 164,396 157,398 150,400 143,400 135,399 128,397 122,394 117,390 113,386 108,382 105,378 101,374 97,370 93,365 90,360 88,354 88,348 90,342 93,337 99,332 106,329 114,327 122,326 130,327 138,328 144,329 150,330 156,330 162,330 168,330 175,329 183,330 192,331 200,333 207,337 212,342 215,348 216,354 214,360" fill="none" stroke="#86855F" stroke-opacity="0.12"/><polyline points="232,360 230,367 228,375 224,382 220,388 215,395 209,401 201,407 192,411 182,415 172,417 161,417 150,416 140,414 130,411 122,408 113,404 105,401 97,397 88,393 80,388 72,383 65,376 59,368 56,360 56,351 59,343 65,335 73,329 83,324 93,320 103,317 113,316 123,314 132,313 141,311 150,310 160,308 170,307 181,307 192,309 203,312 213,316 221,322 227,329 231,336 233,344 233,352 232,360" fill="none" stroke="#86855F" stroke-opacity="0.12"/><polyline points="259,360 260,370 259,380 256,391 250,400 242,409 231,417 219,423 205,427 191,429 177,430 163,430 150,428 137,427 125,425 113,423 100,420 87,417 74,413 61,408 50,400 41,392 34,382 31,371 31,360 34,349 40,339 48,330 58,323 68,316 79,310 89,305 100,300 112,295 124,291 136,288 150,285 164,285 178,286 192,289 205,293 217,299 227,306 235,314 242,323 248,332 253,341 256,350 259,360" fill="none" stroke="#86855F" stroke-opacity="0.12"/><polyline points="293,360 294,373 291,386 284,399 274,410 261,420 247,428 231,433 214,438 198,441 182,443 166,444 150,445 134,446 117,445 100,444 83,441 66,436 51,430 37,421 26,410 18,398 13,386 12,373 13,360 16,348 22,336 29,325 37,314 46,304 57,295 69,286 83,279 98,273 115,268 132,266 150,266 167,268 184,271 200,276 214,282 228,289 240,297 252,305 263,314 273,324 282,335 289,347 293,360" fill="none" stroke="#86855F" stroke-opacity="0.12"/><polyline points="323,360 320,376 314,391 303,404 290,417 275,427 259,436 242,444 225,451 207,457 189,462 170,466 150,469 129,470 108,468 88,465 68,459 50,451 34,441 20,430 10,417 2,403 -4,389 -8,375 -9,360 -8,345 -6,331 -0,316 8,303 19,290 33,278 49,268 68,261 88,255 109,253 130,252 150,253 170,255 189,259 207,264 225,269 243,275 260,283 277,292 292,303 305,315 315,329 321,344 323,360" fill="none" stroke="#86855F" stroke-opacity="0.12"/><path d="M150 360 L211 340 L299 311 L340 295 L387 267 L473 261 L509 208 L572 215 L667 146 L720 150" fill="none" stroke="#D58A43" stroke-opacity="0.85" stroke-width="2" stroke-dasharray="6 5"/><circle cx="211" cy="340" r="2.4" fill="#D58A43" fill-opacity="0.7"/><circle cx="299" cy="311" r="2.4" fill="#D58A43" fill-opacity="0.7"/><circle cx="340" cy="295" r="2.4" fill="#D58A43" fill-opacity="0.7"/><circle cx="387" cy="267" r="2.4" fill="#D58A43" fill-opacity="0.7"/><circle cx="473" cy="261" r="2.4" fill="#D58A43" fill-opacity="0.7"/><circle cx="509" cy="208" r="2.4" fill="#D58A43" fill-opacity="0.7"/><circle cx="572" cy="215" r="2.4" fill="#D58A43" fill-opacity="0.7"/><circle cx="667" cy="146" r="2.4" fill="#D58A43" fill-opacity="0.7"/><circle cx="150" cy="360" r="26" fill="none" stroke="#62BE92" stroke-opacity="0.5"><animate attributeName="r" values="20;34;20" dur="3s" repeatCount="indefinite"/><animate attributeName="stroke-opacity" values="0.6;0.05;0.6" dur="3s" repeatCount="indefinite"/></circle><path d="M134 360 h32 M150 344 v32" stroke="#62BE92" stroke-opacity="0.9"/><circle cx="150" cy="360" r="5" fill="#62BE92"/><text x="140" y="406" fill="#62BE92" font-size="12" letter-spacing="1">RECONSTRUCTED LAUNCH ORIGIN</text><text x="140" y="422" fill="#E7E7DD" fill-opacity="0.8" font-size="11">48.4106 N · 37.9281 E  ± 240 m</text><rect x="711" y="141" width="18" height="18" fill="none" stroke="#E7E7DD" stroke-opacity="0.9"/><circle cx="720" cy="150" r="3" fill="#E7E7DD"/><text x="736" y="144" fill="#E7E7DD" font-size="12" letter-spacing="1">CAPTURE POINT</text><text x="736" y="160" fill="#86855F" font-size="11">T+00:04:12 · ALT 118 m</text><g transform="translate(842,58)"><path d="M0 -22 L7 10 L0 3 L-7 10 Z" fill="#86855F" fill-opacity="0.8"/><text x="0" y="26" fill="#86855F" font-size="11" text-anchor="middle">N</text></g><line x1="40" y1="490" x2="160" y2="490" stroke="#E7E7DD" stroke-opacity="0.7"/><path d="M40 486 v8 M160 486 v8" stroke="#E7E7DD" stroke-opacity="0.7"/><text x="100" y="482" fill="#E7E7DD" fill-opacity="0.7" font-size="10" text-anchor="middle">2 KM</text><text x="22" y="34" fill="#E7E7DD" fill-opacity="0.9" font-size="13" letter-spacing="2">FIG.05 — FLIGHT-LOG RECONSTRUCTION</text><text x="878" y="504" fill="#62BE92" fill-opacity="0.85" font-size="11" letter-spacing="2" text-anchor="end">CHAIN OF CUSTODY · SEALED</text></svg>